<svg version="1" xmlns="http://www.w3.org/2000/svg" width="1110.667" height="1110.667" viewBox="0 0 833.000000 833.000000"><path d="M392.8 18.5c-.2.1-4.1.5-8.8.9-10.4.7-30.6 3.2-34 4.1-.8.2-3.1.7-5 1-4.5.7-11.9 2.2-20.5 4-1.1.3-6.9 1.8-13 3.5-6 1.7-11.7 3.2-12.5 3.5-11.3 3-37.4 13.2-53 20.7-30.6 14.7-65.5 37.3-87.5 56.8-37.1 32.8-63.4 64.5-85.9 103.5-17.3 29.8-34.1 71.8-41.1 102.5-2.3 9.7-4.5 20.3-4.9 23.5-.4 2.2-.8 4.7-1.1 5.5-.6 2.1-1.3 7.6-2.1 15.1-.3 3.5-.7 6.6-.9 6.9-1 1.6-1.9 23.7-1.9 43.5 0 31.7 1.1 44.3 6.9 77 .3 1.6.8 3.8 1.1 4.7.3.9.7 2.7.9 4 2.8 14.7 10.7 40.5 18.7 60.8 29.5 74.4 82.1 139 149.7 183.4 25 16.4 45.8 27.4 71.1 37.4 24.9 9.9 57.9 19.3 76.6 21.8 2.7.3 5.2.8 5.5 1 .7.4 4 .9 12.4 1.9 2.8.3 6.1.8 7.5 1 17 2.6 71.5 2.6 89 0 1.4-.2 6.1-.9 10.5-1.5 65.3-8.7 132.2-36.6 184.5-76.8 43-33.1 77.3-72.4 104.5-119.7 14.8-25.8 25.9-52.1 36.8-88 1.5-4.9 6.1-24.1 7.1-30 .3-1.7.8-4.1 1.1-5.5 1.3-6.7 4.5-30.6 5.2-39.5 1.4-18.8.6-73.6-1.2-76.5-.2-.3-.6-3.2-.9-6.6-.4-3.3-.9-7.3-1.2-9-.3-1.6-1.4-7.4-2.4-12.9-2.4-12.9-2.6-14.1-5.5-25.8-7.7-30.5-22.9-68.2-38.4-95.1-2.8-4.9-5.1-9.1-5.1-9.3 0-1.6-25.3-37.5-32.4-46-15.3-18.4-32-35.4-50.7-51.9-11.3-9.9-52.7-39.4-55.4-39.4-.4 0-1.9-.8-3.3-1.9-7.4-5.1-37-19.5-53.2-25.8-23.3-9-55.6-18.2-73.4-20.8-2.1-.3-4.1-.7-4.5-.9-.3-.2-3.5-.7-7.1-1.1-3.6-.3-7.2-.8-8-1-1.6-.4-10.6-1.5-18-2.1-5.3-.5-55.7-1.3-56.2-.9zm56.2 41c44.5 4.6 86.1 16.5 124 35.4 14.3 7.2 19.9 10.4 37.4 21.4 8.5 5.3 35.5 25.6 35.6 26.7 0 .6-7.9 8.8-16.1 16.7l-5.4 5.2-.1-16.5c-.1-9.1-.4-16.7-.6-16.9-.3-.3-37.5-10.1-41.8-11-.8-.2-3.6-.8-6.1-1.5-4.5-1.1-4.8-1.1-14.5 3.9-9.9 5.1-9.9 5.1-14.4 3.7l-4.5-1.3-.5-7.3-.5-7.4-19-4.8c-10.4-2.6-19.9-5-21-5.2-1.1-.2-12-2.9-24.2-6-17.1-4.3-22.7-5.4-24.5-4.6-1.3.5-9 2.6-17.3 4.5-8.2 2-19.7 4.8-25.5 6.1-5.8 1.4-11.4 2.7-12.5 3-4 .8-26.1 5.9-29.5 6.9-1.3.3-6.7 1.6-8.5 1.9-1.1.2-5.1 1.2-9 2.1-3.8.9-7.9 1.8-9 2.1-1.1.2-2.9.6-4 .8-2.7.6-20.6 4.7-22.5 5.1-3.2.8-24.6 5.7-26 6-.8.2-10.5 2.4-21.5 5s-20.9 4.9-22 5.1c-3.5.7-7 1.5-8 1.8-.5.1-2.6.6-4.5 1s-8 1.8-13.5 3.1-11.1 2.6-12.5 2.9c-1.4.2-8.5 1.8-15.9 3.5-7.3 1.7-13.4 3.1-13.5 3.1-.1 0-.2 102.6-.2 228 .1 125.5-.1 228.8-.4 229.6-.3.9-7.5 8.6-16 17.1l-15.4 15.5-3.6-4c-19.3-21.9-40.5-56.6-54.3-89.2-11.3-26.6-21.7-65.2-24.3-89.5-.3-2.8-.7-5.5-.9-6.2-2.6-7.7-2.6-64.9 0-83.3.3-1.9.7-5.5 1-8 .3-2.5.7-5.2 1-6 .2-.8.6-3.8 1-6.5.8-7.2 8.1-36.3 12-48 14.6-44.4 38.3-86.6 68.4-121.5 11.2-13 34.1-35.2 47.1-45.6 38-30.2 80.2-52.1 125.4-64.8 6.6-1.9 13.5-3.7 15.1-4 3.4-.7 6.4-1.4 9.8-2.1 1.2-.3 3.6-.7 5.2-1 1.7-.3 4.1-.8 5.5-1 5.3-1.1 6.9-1.3 12.1-2 3-.4 6.5-.9 7.9-1.1 1.4-.2 6.6-.6 11.5-1 5-.3 9.2-.7 9.4-.9.5-.6 47.8.3 54.1 1zm234.8 121c36.1 40.4 65.2 97.1 77.7 151.5 3.9 16.9 7.1 36.9 8.3 51.5 1.4 18.1.6 62.2-1.3 72-.2 1.1-.7 4.2-1 7-.8 6.7-4.2 25.3-6.5 34.5-15.3 63.7-47.8 121.4-94.5 167.5-20.1 19.9-21.2 20.8-22.6 19.9-.7-.4-.9-.3-.6.3.9 1.4-1.9 3.7-3.4 2.7-.7-.4-.9-.3-.6.3.4.6-.2 1.8-1.3 2.8-1.1 1-2 1.5-2 1.1 0-.4-1.3.6-2.9 2.1-4.6 4.4-6.1 5.5-6.1 4.3 0-.5-.4-1-1-1-.5 0-.7.6-.4 1.4.3.8 0 1.7-.7 2.1-1.6 1-8 1.5-7.5.6.3-.4 0-1.3-.6-2.1-.8-1.2-.9-1.2-.4.2.3 1 .1 1.8-.4 1.8-.6 0-1-.6-1-1.3 0-.9-.2-.9-.9.1-.6 1.1-1 1-1.5-.4-.4-1-.4-1.5 0-1.2.3.4 1.9.1 3.5-.8 1.6-.8 2.9-1.2 2.9-.8 0 .4.6.2 1.3-.3 2.2-1.7 4.9-2.4 4.1-1-.4.6.2.3 1.4-.7 1.2-1.1 2.2-1.6 2.2-1.1 0 .4.7.2 1.5-.5s1.5-.9 1.5-.4c0 .4.5.3 1.2-.4.6-.6 1.1-2.9 1-5.2-.1-2.6.2-4 1.1-4 .9 0 .9-.2 0-.8-1.3-.8-1.6-11.3-2.8-88.2-.7-42.7-1.3-79.4-2.1-123-.3-17.9-.7-41.5-.9-52.5-1-53.4-1.5-84.5-2-123-.4-23.1-.8-49.2-1-58l-.3-16 25.2-25.3 25.1-25.2 2.8 3.2c1.6 1.8 4.1 4.6 5.5 6.3zm-504 494.1c.7.1 2.3.2 3.7.3 1.4 0 2.5.6 2.5 1.2 0 .5-.4.7-1 .4-.5-.3-.7 0-.4.8.3.8-.2 1.4-1.1 1.4-.9 0-1.4-.6-1.1-1.3.3-.7-.2-1-1.4-.7-1.1.3-2.4-.4-3.3-1.7-.9-1.3-1.7-1.7-2.2-1.1-.3.6-.2 1.1.2 1.1.5 0 2.3 1.3 4.1 2.9 1.7 1.7 3.2 2.5 3.2 1.8.1-.7.9-.2 1.9 1 1.4 1.7 2.1 1.9 3.1 1 1-1 1.2-.8.7.6-.4 1.1-.3 1.6.3 1.2.6-.3 1.1-.1 1.1.4.1.6.2 1.6.3 2.3.1 1.4 2.6 2.3 2.6.9 0-.5-.4-1.3-1-1.6-1.2-.8-1.3-2.5-.2-2.5.5 0 1.4 1.2 2.1 2.7 1 2.1.9 2.8-.1 3.5-1 .7-.9.8.4.6.9-.2 2.4.6 3.3 1.7.9 1.1.7.3-.5-1.8-2.2-3.7-2.2-3.9-.5-5.5 1.7-1.6 1.7-1.6 1.2 0-.7 2 .1 4.8 1.4 4.8.4 0 .6-.8.2-1.8-.3-.9-.3-1.4.2-1 .4.4 1.4.3 2.2-.3 1-.9 1.3-.8 1.3 0 0 .7.5.9 1.1.5.8-.4.7-.9-.2-1.6-1.1-.8-1-.9.4-.4.9.3 1.7.1 1.7-.5s-.8-.9-1.7-.8c-1 .2-2.8-.2-3.9-.9-1.2-.6-2.5-.8-2.9-.4-.5.4-.4 0 0-.8.8-1.3.7-1.3-1 0-1.5 1.2-1.7 1.2-1 .1.5-.9.4-1.2-.3-.7-1.4.9-5.5-1.2-4.7-2.4.4-.6 4-.7 4 0 0 .1.9.3 2 .5s2.1.9 2.3 1.4c.2.6.8 1.1 1.3 1.1.6 0 .7-.6.3-1.3-.4-.6.2-.4 1.3.5 2.2 2 3.8 2.4 2.7.7-.3-.6.7-.4 2.2.4 1.6.8 3.7 1.3 4.6 1.2 1-.2 1.6.2 1.5.7-.1.6.4 1.3 1.2 1.6.8.3 1.1 0 .7-.7-.5-.7-.1-.9.9-.4 1.3.5 1.4.7.3 1.4-.7.5-1.1.9-.8 1 1.4.2 3.6.7 4.5 1 .6.2 2-.1 3.3-.5 1.3-.4 2.8-.3 3.5.2.7.5 2 .8 3 .7 1-.2 1.4.1 1 .8-.4.6 0 .8 1 .4.9-.3 1.6-.3 1.6.1-.3 2.1.2 3.2 1.4 2.6 1-.6 1-.4 0 .7-2.1 2.2-1.5 3.3.8 1.3 1.9-1.7 2-1.9.2-3.1-1.8-1.4-1.6-1.4 3.6-.4.2.1-.2.8-.9 1.6-.8.9-.9 1.5-.2 1.5.6 0 1.3-.4 1.7-.9.3-.6 1.4-.9 2.5-.8 1 .1 1.7.4 1.4.8-.2.4.5 1.4 1.6 2.2 1.1.7 1.7 1.7 1.3 2-.3.4-.1.7.5.7s1.4-.5 1.7-1c1.2-1.9 2.6-1 1.9 1.2-.7 2.3-.6 2.3 1.5.4s3-4.3 1.2-3.1c-.5.3-1.2.1-1.5-.4-.4-.5.1-.8.9-.7 2.3.3 2.9 1.4 1.5 3.1-.8.9-.9 1.5-.2 1.5.6 0 1.6-.8 2.1-1.8.6-.9 1.1-1.4 1.1-.9 0 .4-.6 1.6-1.2 2.7-1 1.5-1 2.2 0 3.2.9.9 1.2.7 1.2-.9 0-1.2.5-2.5 1.1-2.9.8-.4.9.1.4 1.7-.6 1.8-.4 2.1.5 1.3 1.9-1.9 6.1.6 5.3 3.1-.5 1.7-.4 1.8 1 .7.8-.7 1.3-2.3 1.1-3.5-.4-2.1-.4-2.1.6.2.8 1.8 1.3 2.1 2.4 1.2 1.6-1.4 2.9.9 1.9 3.5-.5 1.4-.3 1.4 1.5.3 1.6-1 1.8-1.7 1-2.6-.7-.9-.6-1.4.6-1.9.9-.3 1.3-1 1-1.5-.3-.5.2-.6 1.2-.2 1.4.5 1.4.7-.5 1.8-2.3 1.2-1.9 2.7.5 1.8.8-.3 1.7.2 2 1.1.3.9 1 1.3 1.5 1 .5-.3.9 0 .9.6s.4.8 1 .5c.5-.3.7 0 .4.8-.4 1 .1 1.5 1.3 1.4 1-.1 1.7.3 1.6 1-.1.6.4 1.3 1.1 1.6 2 .8 1.4-2.3-.7-3.8-.9-.7-1.4-1.5-1.1-1.8.4-.3 1.5.4 2.5 1.6 1 1.2 1.8 1.7 1.9 1.1 0-.5-.5-1.5-1.2-2.2-.9-.9-.9-1.5.1-2.5s1.1-.8.5.7c-.5 1.2-.4 1.7.3 1.3 1.2-.7 1.4 2.4.2 3.8-.4.6-.4 1.7.1 2.5 1.5 2.3 1.2 2.8-1.9 4.4-2.6 1.4-3 1.4-3.5 0-.5-1.2-.2-1.5.9-1 .9.3 1.3.2 1-.3-.3-.5-.1-1.2.5-1.6.5-.3 1-.1 1 .5s.5.8 1.1.4c.8-.4.7-.9-.2-1.5-.7-.4-1.7-.5-2.1-.3-.4.3-.8-.1-.8-.8 0-.9-.3-.9-1 .2-.9 1.3-1 1.3-1 0s-.2-1.3-1.1 0c-.9 1.3-1 1.3-.6-.2.4-1.2.1-1.6-1.4-1.3-1.2.3-1.7 0-1.3-.7.5-.7.2-.8-.6-.3-.9.5-1.1.4-.6-.3.5-.8.2-1-.8-.6-2.1.8-2-.5.1-2.8.9-1 1.1-1.8.5-1.8-.6 0-1.8 1.2-2.6 2.7-.8 1.6-1.5 2.3-1.6 1.7 0-.6-.7-1.1-1.5-1.1s-1.2.5-.8 1c.3.5-.6.1-2.1-.8-1.4-1-2.6-1.3-2.6-.9-.1.5-.9 0-1.8-1.1-1.8-2.1-4.8-3.3-3.7-1.6.3.6-.3.8-1.5.6-1.1-.2-1.8 0-1.5.6.9 1.4-.2 1.1-1.9-.7-1.2-1.2-1.6-1.2-1.6-.2s-.3.9-1.1-.2c-.9-1.2-1-1.2-.5.4.5 1.3.2 1.7-.9 1.2-.8-.3-1.5-.4-1.5-.2 0 .3-.3 1.1-.6 2-.3.9-.1 1.6.6 1.6.6 0 .9-.3.6-.8-.2-.4.7-1.2 2-1.9 2.7-1.3 3.2-.2.8 1.7-.8.8-2 2.3-2.5 3.4-.9 1.9-.9 1.9.4.4.8-1 1.8-1.4 2.2-1 .5.4.5.2.2-.4-.4-.6.2-1.9 1.3-2.9 1.9-1.7 2-1.7 2 .3 0 1.1.5 2.4 1.1 2.8.8.4.9-.1.4-1.7-.6-1.9-.5-2.2.6-1.2 1 1 1.6 1 2.7 0 1.3-1 1.4-.8.8 1-.6 1.8-.1 2.5 2.2 3.7 1.6.8 3.2 1.2 3.6.9.3-.4.6-.1.6.5 0 .7.5 1.2 1.1 1.2.8 0 .8-.4 0-1.4-.8-.9-.8-1.6-.2-2 .5-.4 1.3.4 1.7 1.6.6 2.1.7 2.1 2.1-.5 1.5-3 3-3.5 3-1.2 0 .8-.4 1.5-.8 1.5-.5 0-1.3 1-2 2.1-.9 1.7-.8 2 .2 1.4.9-.6 1.1-.3.6.9-.4 1-.3 1.5.4 1.1.5-.4.7-1.6.3-2.8-.6-2-.5-2 1-.8 1.4 1.2 1.6 1.2 1.1-.1-.3-.8.2-2.1 1.1-2.9 1.5-1.2 1.6-1.2 1 .9-.8 2.4.3 2.9 2.1 1.1.9-.9 1.2-.7 1.2.7.1 5.4.2 5.5 2.9 3.8 1.3-.8 2.7-1.2 3-.8.4.4.1.9-.5 1.1-.7.3-1.3 1-1.3 1.6 0 .6 1 .1 2.3-1.1 1.3-1.2 2.6-1.9 3-1.6.4.4-.3 1.5-1.5 2.5-1.1 1.1-1.7 1.9-1.3 1.9.5 0 1.6-.7 2.6-1.6 1.6-1.5 2-1.4 4 .5 1.2 1.1 2.5 1.9 2.7 1.6.3-.2-.6-1.3-1.9-2.4-1.3-1.1-1.9-2-1.3-2.1.7 0 2.2.9 3.5 2 2.4 2 2.4 2 .5 3.5-1.2.9-1.5 1.5-.7 1.5.7 0 2.2-1.1 3.2-2.5 1.3-1.5 2.6-2.2 3.6-1.8 1.2.5 1.5.2 1.1-.9-.4-.9-.1-2.1.5-2.8.9-1 .9-1.1 0-.6-.6.3-1.3.3-1.6-.1-.2-.5-.3-.3-.1.3.1.6-.4 1.1-1.1 1.1-.7 0-1.2-.7-1.1-1.5.1-.8-.6-1.7-1.4-2-1.3-.5-1.3-.3-.1 1.1.7 1 1 1.7.6 1.7s-.2.6.4 1.3c.6.8.8 1.7.4 2-1.3 1.4-2.1.6-1.9-1.8.3-2 0-2.3-1.5-1.5-2.2 1.2-3.9 1.3-2 .1.9-.6 1-1.1.2-1.5-.6-.4-1.1-.2-1.1.3 0 .6-.4 1.1-.9 1.1-.4 0-.8-1-.7-2.2 0-1.1-.4-2.3-1-2.5-.6-.2-1.1.3-1.1 1.2 0 .8.3 1.5.7 1.5.4 0 .7.7.7 1.5 0 .9-.5 1.4-1.1 1.2-.6-.3-1-1.1-.8-1.8.3-1.1.1-1.2-.9-.2-.7.7-1.8 1.3-2.4 1.3-.5-.1.1-1 1.4-2 2.1-1.8 2-2.4-.1-2.1-.4 0-.5-.9-.3-2.1.5-2.4 1.5-3.7 1.5-1.9 0 .7.4 1 1 .6.5-.3.7-1.3.4-2.3-.5-1.4-.4-1.4.4-.2.8 1 .7 1.9-.1 2.9-1 1.1-.8 1.3 1 .7 1.6-.5 2.5-.2 3.3 1.4.6 1.1 1.6 2 2.2 2 .7 0 .6-.5-.2-1.5-1.4-1.7-1-2.5 1.2-2.9.7-.1 1.8-.5 2.4-.8.6-.4 1.1-.1 1.1.7 0 .8-.4 1.2-.9.9-.4-.3-.8 0-.8.5 0 .6.6 1.1 1.3 1.2.9 0 .9.2-.1.6-.6.2-.9.9-.6 1.4.3.6 1.1.6 2-.2.7-.6 1.1-1.5.8-2-.3-.5 0-.9.5-.9 1.4 0 1.4 1.3-.1 2.8-.9.9-.8 1.2.5 1.2.9 0 1.7-.5 1.7-1 0-.6.5-1 1.1-1 .8 0 .8.4 0 1.4-1.9 2.3-2.2 5.9-.6 8.3 1.6 2.4 3.5 3.1 3.5 1.2 0-.5-.5-.7-1.1-.3-.7.4-1 .1-.7-.7.3-.8 1.1-1.4 1.8-1.4s1.5-.6 1.8-1.3c.5-1.6-1-1.6-2.7 0-1.1 1.1-1.2 1-.6-.2.8-1.3.7-1.3-.8-.1-1.1.9-1.7 1-1.7.2 0-.6.5-1.1 1.1-1.1.5 0 .8-.4.5-.9-.3-.4.1-1.7 1-2.7 1.4-1.9 1.4-1.9 1.2 0-.2 1 .4 2.1 1.2 2.4.8.3 1.2.1.8-.3-.9-1 .9-4.5 2.3-4.5.6 0 .3.7-.5 1.6-1.3 1.2-1.3 1.8-.3 2.9 1.6 1.7 3.1.7 1.6-1.1-1.9-2.3-.2-1.6 2.5 1.1 1.4 1.4 3.1 2.2 4 1.9.9-.3 1.7.2 2.1 1.5.3 1.2 1.1 2.1 1.7 2.1.5 0 .7-.7.4-1.6-.3-.8-.2-1.2.4-.9.6.3 1 .1 1-.4 0-.6.5-1.1 1.1-1.1.5 0 .7.4.4 1-.3.5-.1 1 .4 1 .6 0 1.1.5 1.1 1.1 0 .8-.5.8-1.5-.1-1.5-1.3-2-.3-.7 1.5.9 1.2 3.2 1.8 3.3.7.7-4.7.7-6.2-.3-5.6-.7.5-.8.2-.3-.6 1.3-2.1 3.7 1.8 2.5 4.1-1.7 3-1.1 3.5 1 .9 1.1-1.4 2-2 2-1.4 0 .5-.6 1.6-1.2 2.3-1.1 1-.9 1.2.7.9 1.1-.1 2.6-.9 3.3-1.5 1-1 1.9-1 3.4-.2 1.1.6 1.7 1.3 1.4 1.6-.3.3-1.2.1-1.9-.5-.8-.7-1.7-.9-2-.5-.7.6 2.1 3.2 3.5 3.3.4 0 1.4-1.2 2.1-2.6 1.2-2.2 1.5-2.4 2-1 .4.9.3 1.5-.1 1.2-.4-.2-1.7 1.1-2.9 2.9-1.8 2.7-1.9 3.4-.8 3.9.8.3 1.4.2 1.3-.2-.5-1.6 2.4-5.3 3.8-4.8.8.3 1.4.1 1.4-.4 0-.6.5-1 1.1-1 .8 0 .8.4-.1 1.5-.6.8-.9 1.8-.7 2.3.3.4.2 1.4-.2 2.1-.7 1-1.3 1.1-3 .1-2.1-1.1-2.2-1-1.1 1 .9 1.6.8 2.5-.1 3.6-.7.9-.8 1.4-.1 1.4.6 0 1.4-.9 1.7-2 .3-1.1 1.5-2 2.6-2 1 0 1.8-.6 1.7-1.3-.2-.6.5-1.1 1.4-1.1.9.1 1.9-.5 2.2-1.3.4-1.1.1-1.3-1.4-.8-1.1.4-2 .2-2-.3 0-1.2 3.2-1.2 4.8.1.8.6 1.2.5 1.2-.4.1-.9.4-.8 1.1.4.8 1.3 1.4 1.5 2.3.8 1-.8 1.8-.6 3.1.9 1.5 1.6 1.5 2.2.5 3.5-1.7 2.1-.1 1.9 2.4-.3 1.8-1.7 2.4-1.7 4.6-.6 1.5.8 1.9 1.4.9 1.4-.8 0-2-.5-2.6-1.1-.7-.7-1.3-.7-1.7-.1-.3.6.3 1.3 1.4 1.7 2 .6 2.3 3.6.5 5.2-.4.5-.5.2 0-.5.6-1.2.3-1.2-1.5-.2-1.2.6-2.4.9-2.7.6-.3-.3.3-.9 1.3-1.3 1-.5 2-1.4 2.2-2.1.3-1.7-.9-1.5-2.4.6-1.3 1.6-1.4 1.6-.8-.3.3-1.1.2-1.6-.3-1-1.2 1.5-3.6 1.8-2.7.4.5-.8.3-.9-.7-.4-.8.5-.6-.1.5-1.3 1.5-1.8 1.6-2.4.6-3.7-.7-.8-1.7-1.2-2.2-.9-.6.4-.6.9.2 1.4.9.5.9 1.3.2 2.7-.7 1.2-.8 2.3-.2 2.9.6.6.3 1-.9 1-1.1 0-1.8-.3-1.6-.6 1-1.7 1.2-6 .3-6-.5 0-.8.7-.5 1.5.4.8.2 1.7-.3 2-.5.3-.7 1.8-.5 3.5.3 2.4.1 2.8-1.3 2.3-1.1-.3-.9.1.6 1.1 1.3 1 2.7 1.4 3.5.9.6-.4 2.4-.8 4-.9 2.2-.1 2.5.1 1.7 1.1-.9 1.1-.5 1.8 1.4 3 1.4 1 2.4 2.1 2.1 2.5-.3.5 0 1.2.6 1.6.8.4.9.3.5-.4-.5-.8.1-1.2 1.6-1.3 2-.1 2-.2.3-.6-3.2-.9-6.7-3.5-5.7-4.5 2.2-2.2 5.2-1.7 6.9 1.3 2 3.4 2.1 3.4 5 1.4 1.8-1.3 2.2-1.3 3.4.1 1.1 1.3 1 1.5-.2 1.4-2.6-.4-3.9 0-3.9 1.1 0 .8.4.8 1.4 0 1.1-.9 1.5-.9 1.9.1.4.8.8.9 1.4.3.4-.6 1.7-1.2 2.8-1.3 1.6-.3 1.8-.1.8.9-.7.7-1.3 1.7-1.3 2.3 0 .5.9 0 2-1.2 2-2.1 4.7-3.1 3.5-1.3-.3.5.1 1.6.9 2.4.8.8 1.2 1.7.9 2.1-.4.3-.1.6.5.6 1.7 0 1.5-1-.5-3.3-1.4-1.6-1.5-1.9-.3-1.5.8.2 1.9 1.4 2.4 2.5 1.1 2.3 4.6 4.9 4.6 3.3 0-.5-.5-1-1.1-1-.5 0-.7-.5-.3-1.2.4-.7.3-.8-.4-.4s-1.2.3-1.2-.3c0-2.3 1.8-1.8 3.9.9 1.2 1.7 2.8 3 3.6 3 .8 0 1.5.4 1.5 1 0 .5.5 1 1.1 1 .8 0 .9-.4 0-1.3-1.6-2-.1-2.9 1.7-1 1.4 1.4 1.4 1.7-.2 2.9-1.7 1.2-1.7 1.3.2 1.1 1.5-.1 1.9-.7 1.7-2.6-.1-1.4-.8-2.7-1.4-2.9-.6-.2-.9-.8-.6-1.2.7-1.2-3-3.2-4-2.2-.5.4-.5.1 0-.7.6-1 .4-1.2-.4-.7-.8.6-.9 1.2-.2 2 .6.7.8 1.6.4 1.9-.9.9-2.3.9-2.2-.1.3-1.9-.2-3.3-1-2.7-.6.3-1.4-.3-2-1.2-.6-1.1-1.1-1.3-1.1-.5 0 .7-.5 1-1.1.6-.8-.4-.7-.9.2-1.6 1.1-.7 1-.8-.4-.4-1.2.4-1.6.2-1.1-.6.5-.7.3-.8-.5-.3-1 .6-1.1.3-.2-1.3.8-1.5.7-2.1-.4-2.6-.8-.3-1.7-.1-2 .4-.4.6-.2 1 .4 1 .5 0 .9.9.8 2-.1 1.1-.5 2-1 2s-.6-.7-.3-1.6c.4-1 .2-1.3-.6-.8-.7.5-.8.3-.3-.7.8-1.2.6-1.2-.8 0-1.3 1-2 1.1-3 .2-1.7-1.4-2.8-.4-1.9 1.7.5 1.5.4 1.5-1.2.3-1.7-1.4-1.7-1.6 0-2.8 1.8-1.3 1.7-1.3-.3-1-1.1.1-2.8.9-3.7 1.6-1.1.9-1.6 1-1.6.2 0-.6.7-1.4 1.5-1.7.8-.4 1.2-1.1.8-1.7-.3-.6-.1-.7.5-.3.7.4 1.2.3 1.2-.3 0-2.9-2.3-1.7-4 2.1-1.1 2.4-2 4.1-2.1 3.8-.8-4.2-.7-5 .2-4.7.6.1 1.4-.5 1.6-1.3.4-1.2.3-1.2-.5-.1-.7.9-1.2 1-1.6.2-.4-.6-1.2-.9-1.7-.6-.5.3-.6-.2-.3-1.2.4-1.4.3-1.5-.4-.4-.7.9-1.2 1-1.6.2-.4-.6-.2-1.1.4-1.1.6 0 .8-.4.5-1-.3-.5-.2-1 .4-1 .5 0 1.3.9 1.6 2 .3 1.1 1.1 2 1.6 2 1.2 0 1.2-1.7-.1-2.5-.5-.3-.7-1.2-.3-2.1.5-1.2.7-1.2 1.8.3.7.9 1 2.4.7 3.1-.4 1.1.1 1 2.2-.3 2.5-1.7 2.6-1.7 1.9 0-.4 1.3-.3 1.6.6 1.1.6-.4 1.8-.2 2.6.4 1.1.9 1.5.9 1.5.1 0-1.6 3.2-.8 6.8 1.7 1.8 1.3 3.2 1.8 3.2 1.2 0-.6.5-.8 1.1-.4.8.4.7.9-.2 1.5-1 .6-1 .9-.2.9 2 0 2.6-2 1.1-3.8-1.2-1.5-1.1-1.6.5-.3 1 .8 1.6 2 1.3 2.8-.7 1.7-.1 1.7 2.9-.3 1.4-.9 2.6-1.2 2.7-.8 0 .5.2 1.3.3 1.9.2.5.3 1.4.4 2 .1.5.6.3 1.1-.5.7-1.1 1-1.1 1-.2 0 .7.5 1 1 .7.6-.4.8-1.1.5-1.6-1-1.5.2-1 1.6.8.8.9.9 1.4.3 1-.7-.4-1.8 0-2.5.9-1.1 1.3-.9 1.4 1.4.9 3.1-.8 3.7.8 1 2.4-1 .6-1.2 1.1-.5 1.1 1.7 0 1.5 1.7-.3 1.7-.8 0-1.2-.4-1-.8.3-.4-.2-1-1.1-1.3-1.5-.6-1.5-.4-.1 1.6.8 1.3 2 2.2 2.5 2.1.6-.1 1.6.5 2.3 1.4 1.2 1.4 1.1 1.5-.9.9-1.4-.5-2.2-.3-2.2.4 0 .6.5.8 1 .5.6-.3 1-.1 1 .6 0 .9.3.9 1.4 0 1.2-1 1.8-.7 3 1.6.8 1.5 1.5 2.3 1.5 1.8.1-.6-.3-1.6-.8-2.4-1.1-1.7-.3-4.3 1-3.5.5.3.6 1 .3 1.6-.4.6.6 2.1 2.2 3.4 1.6 1.3 2.3 2.3 1.7 2.4-.7 0-1.3.5-1.3 1 0 .6.8.5 1.9-.2 1.7-1 1.8-1.3.5-2.3-1.3-.9-1.3-1.3.5-2.9 2.3-2 2.9-.9.9 1.3-1 1.1-1 1.3 0 .7.6-.4 1.2-.2 1.2.4 0 .7.8.9 2.2.4 1.9-.6 2.1-.4 1.1.7-.8 1-.9 1.9-.1 2.9.8 1.2.9 1.2.4-.2-.9-2.8 1-3 2.3-.2.6 1.4 1.6 2.2 2.1 1.9.6-.3 1-.2 1 .3 0 1.5-3.7 2.1-4.9.9-.6-.6-1.1-.7-1.1-.2 0 .6-2 1-4.5 1.1-2.5.1-4.5-.3-4.5-.8 0-.4-.5-.8-1.1-.8-.5 0-.8.4-.5.8.2.4-.4.9-1.5.9-1.2.1-1.7-.3-1.3-1 .5-.8.3-.8-.7 0-1.7 1.7-8.1 1.7-9.8 0-1.1-.9-1.2-.9-.7 0 .9 1.6-4.5 1.4-5.6-.2-.5-.6-.8-.6-.8.2 0 .6-1.3 1.1-3 1.1-1.6-.1-3-.5-3-1.1 0-.5-.6-.5-1.3.2-.8.6-1.6.9-1.8.7-.2-.3-4-.8-8.4-1.1-4.4-.4-9.8-.9-12-1.2-7.3-.8-10-1.1-12.3-1.2-1.3-.1-2.1-.4-1.9-.9.3-.4-1.1-.7-3.1-.8-3.4-.1-5.8-.4-12.2-1.8-1.4-.3-4.1-.9-6-1.3-4.1-.8-3.1-.6-10.3-2.2-3.1-.7-5.5-1.6-5.3-1.9.2-.4-.8-.7-2.2-.8-3.2-.1-17.3-4.3-18.7-5.6-.5-.4-1.7-.8-2.6-.8-.9 0-3.4-.8-5.5-1.7-2.2-.9-4.3-1.8-4.9-1.9-2.1-.5-21-8.6-21.5-9.3-.3-.3-1.2-.7-2-.9-2.3-.5-18.5-8.6-18.8-9.5-.2-.4-1-.7-1.8-.7s-1.4-.5-1.4-1c0-.6-.5-1-1-1-1 0-8.6-4.2-15.3-8.5-1.8-1.1-4.9-3.1-6.9-4.3-2.1-1.3-3.5-2.8-3.2-3.3.3-.5-.2-.6-1-.3-.9.3-2-.3-2.8-1.5-.7-1.2-2.1-2.1-3.1-2.1s-1.5-.5-1.2-1c.3-.6 0-1-.7-1-1.6 0-7.4-4.9-7.1-6.1.2-.4-.3-.6-1.1-.3s-2-.3-2.7-1.4c-.8-1.1-1.7-2-2.2-2-1.8-.3-5.7-3.6-5.7-4.8 0-.8-.7-1.4-1.5-1.4-.9 0-1.8-.7-2.1-1.5-.4-.8-1.1-1.5-1.6-1.5-1.5 0-9.3-6.9-9.4-8.3 0-.7.4-1.8.9-2.5.8-1 1.3-.7 2.1 1 .6 1.3 1.7 2.4 2.4 2.4zm9.6 2.6c-.3.5-1 .6-1.5.3-.5-.4-.9-.4-.9-.2 0 1.2 8.2 5.7 9.3 5 .7-.4.7 0-.2 1-1.3 1.6-1.4 1.6-2.6.1-.6-1-1.7-1.4-2.2-1.1-.6.4-1.4 0-1.7-.9-.3-.8-1-1.2-1.6-.9-.5.3-1.5.3-2 0-1.4-.9.5-4.2 2.4-4.2.8 0 1.3.4 1 .9zm12.2 7.6c-1.4 1.3-3.2.9-3.2-.8 0-1.5.4-1.6 1.9-.8 1 .5 1.6 1.2 1.3 1.6zm19.4.2c.8.5 1.1 1 .5 1-.5 0-1.7-.5-2.5-1s-1-1-.5-1c.6 0 1.7.5 2.5 1zm29 8.6c0 .2-.7.4-1.5.4s-1.5-.4-1.5-1c0-.5.7-.7 1.5-.4.8.4 1.5.8 1.5 1zm12.6 2.6c.4.7.3.8-.4.4s-1.2-.2-1.2.5-.3 1-.6.6c-.6-.5.3-2.7 1.1-2.7.2 0 .7.5 1.1 1.2zm2.8 2.2c-.3.9-1.2 1.2-2.2.9-1.5-.6-.9-1.1 2.5-2.2.1-.1 0 .5-.3 1.3zm7.8 1c.7-.4.8-.2.4.5-.9 1.3-2.6.5-2.5-1.2 0-.9.2-.8.6.1.2.6 1 .9 1.5.6zm337.1.3c-.3 1-.3 1.5.2 1.1.4-.4 1.4-.3 2.2.3.7.6 1.3.8 1.3.4s1.1 0 2.4.9c1.8 1.1 2.6 1.2 2.9.3.2-.6.8-.9 1.2-.5.9.8-3.3 4.7-5.1 4.8-.6 0-1.9.9-2.9 2-1.3 1.5-2.2 1.7-3.6.9-1.1-.5-1.9-1.5-1.9-2.1 0-.9.3-.9 1.2 0 .8.8 1.8.6 3.9-.9 1.6-1.1 3.3-1.8 3.7-1.5.5.3.9-.1.9-.8 0-.7-1.2-1.2-2.9-1.2-1.5 0-2.8.4-2.8.9s.7.6 1.6.3c.8-.3 1.2-.2.9.3-1 1.7-4.3.8-3.8-.9.4-1 0-.8-1.1.5-1 1.1-1.4 1.3-1 .5.4-.8.3-1.1-.1-.7-.8.7-1.5 2.8-1.7 5.4-.1.7-.6 1.1-1.1 1-.5-.1-1.2.5-1.4 1.3-.4 1.3-.3 1.3.6 0 .6-.8 1.1-1.1 1.1-.6 0 .5.6.3 1.4-.3 1-.8 1.6-.9 2.1-.1.3.5-.1 1-.9 1-.9 0-1.6.5-1.6 1.1 0 .5-.5.7-1 .4-.6-.3-1.3 0-1.6.9-.3.9-1.2 1.2-2.1.9-1.2-.5-1.4-.3-.8.7.5.9.4 1.1-.3.6-.7-.4-1.2-.3-1.2.2 0 1.2-16.9 10.8-18.2 10.4-.4-.1-.8.3-.8.9 0 .8-.5.8-1.5-.1-.8-.7-1.2-1.7-.9-2.2.4-.6 1-.5 1.5.3.7 1.1.9 1.1.9-.1 0-1.3.1-1.3 1 0 .7 1.1 1 1.1 1 .2 0-.7.4-1.1.9-.7.5.3 1.3 0 1.7-.6.5-.8.3-.9-.6-.4-1 .6-1.2.4-.7-.8.3-.9.2-1.9-.3-2.2-.7-.4-.7-1.3-.1-2.4.7-1.3.6-2.4-.5-3.9-.9-1.3-1.1-2.2-.5-2.2.6 0 1.1.5 1.1 1.1 0 .5.5.7 1 .4.6-.3 1-.1 1 .5s.5.8 1.2.4.8-.3.4.5c-.4.6-1.2.9-1.7.6-.5-.3-.6.2-.2 1.1.6 1.5.8 1.5 2.5-.6 2.1-2.7 2.3-4.1.4-3.4-.8.3-1.7.1-2.1-.5-.4-.7 0-.8 1.1-.4 1.2.4 1.5.3 1-.6-.4-.6-.4-1 .1-.9 2.1.6 11.6-6.4 10.5-7.8-.4-.5-.3-.6.2-.2.5.4 1.6.2 2.4-.4 1.6-1.4 4.2-1.9 4.2-.9 0 .4 1 .7 2.3.8 2.2.2 2.2.2.2-1.4-1.5-1.1-1.6-1.4-.3-1 .9.3 1.9 0 2.2-.9.8-2 1.7-1.7.9.3zm-329.9 2.9c.3.8.2 1.2-.4.9-.6-.3-1-1-1-1.6 0-1.4.7-1.1 1.4.7zm2.6-.6c0 .5-.2 1-.4 1-.3 0-.8-.5-1.1-1-.3-.6-.1-1 .4-1 .6 0 1.1.4 1.1 1zm1.5 1.9c-.3.6-1.1 1.1-1.6 1.1s-.4-.6.3-1.4c1.4-1.6 2.4-1.3 1.3.3zm310.5 1.6c-1.2 1.3-2.6 2.2-3.1 2-.4-.3-.9 0-1.1.7-.3.7-.7.5-1.1-.6-.4-1-.3-1.5.3-1.1.6.3 1 0 1.1-.7 0-1 .2-1 .6-.1.3.9 1.1.7 2.6-.7 3-2.8 3.5-2.5.7.5zm-331 1.1c.7.7 1.6 1.1 2.1.8.5-.3.9 0 .9.6s.4.9.9.5c1.5-.9 2.4 1.5 1.1 3-.9 1.1-1.7 1.1-3.6.3-1.3-.6-2.4-1.5-2.4-2 0-1.2 1.4-1 2.8.4.7.7 1.2.8 1.2.2-.1-1.5-4.8-4.5-5.5-3.4-.7 1.1-2.5.4-2.5-.8 0-1.4 3.9-1.1 5 .4zm34.1.9c.5-.4.9-.1.9.4 0 .6-.4 1.1-.8 1.1-1.2 0-3.2-2.2-3.2-3.5 0-.5.5-.2 1.1.8.6.9 1.4 1.5 2 1.2zm4.4-.5c-.3.5-1.2 1-1.8 1-.7 0-.6-.4.3-1 1.9-1.2 2.3-1.2 1.5 0zm308.5-.4c0 .8-1.9 1.3-2.4.6-.3-.5.1-.9.9-.9s1.5.2 1.5.3zm-24.6 1.9c.3.9-.3 1.9-1.6 2.6-1.2.7-1.8.7-1.4.1.3-.6 0-1.3-.6-1.6-.7-.3-.3-.3.9 0 1.8.4 2.2.2 1.7-1-.3-.9-.4-1.6-.1-1.6.3 0 .7.7 1.1 1.5zm-23.7 1c0 .8-.4 1.2-.9.9-.5-.3-.6-1-.3-1.5.9-1.3 1.2-1.1 1.2.6zm-289 1.7c-.8 1.3-1.3 1.4-1.9.5-1.2-1.9-.9-2.6 1.1-2.4 1.5.1 1.7.4.8 1.9zm38.6-.5c-.3.7-.6 1.3-.8 1.3-.2 0-.5-.6-.8-1.3-.3-.8.1-1.4.8-1.4.7 0 1.1.6.8 1.4zm4.1.8c-2.3 1.7-3.4 1.9-3.4.4 0-.5.4-.8.9-.4.5.3 1.2.1 1.6-.5.3-.5 1.1-1 1.8-1 .6 0 .2.7-.9 1.5zm258.3.9c0 .8-.6 1.2-1.5.8-.9-.3-1.3-.1-.9.5.3.5-.1 1-1 1-1.2 0-1.1-.5.7-1.9 2.7-2.2 2.7-2.2 2.7-.4zm4.5.3c-.6.2-.9 1-.6 1.5.4.7.2.8-.5.4-1.3-.9-.5-2.6 1.2-2.5.9 0 .8.2-.1.6zm-254 1.6c-1.4.6-2.6.7-3.2.1-.5-.5.4-.9 2.3-1 3-.1 3-.1.9.9zm5.6-.1c-.2.7.5 1.2 1.4 1.2 1-.1 1.5.2 1.2.7-.8 1.4-3.1 1.1-3.7-.5-.3-.8-.3-1.7 0-2 1-.9 1.3-.7 1.1.6zm233.9 1.1c0 .8-.6 1.4-1.4 1.4-.9 0-1-.4-.2-1.4.6-.7 1.2-1.3 1.4-1.3.1 0 .2.6.2 1.3zm-240.8 2.6c-.6.2-1.8-.4-2.7-1.3-1.5-1.5-1.5-1.5 1-.4 1.5.7 2.3 1.5 1.7 1.7zm3.4-1.2c-.4 1.1-.3 1.4.5.9.7-.4 1.2-.2 1.2.3 0 .6-.4 1.1-.9 1.1-1.4 0-2.3-1.8-1.6-3 1-1.6 1.5-1.2.8.7zM559 716c0 .5-.5 1-1.1 1-.5 0-.7-.5-.4-1 .3-.6.8-1 1.1-1 .2 0 .4.4.4 1zm16.8.4c-.7.8-1.5 1.2-1.7 1.1-.5-.6 1-2.5 2-2.5.5 0 .4.6-.3 1.4zm5.2 4.1c-.9 2.3-.8 2.6.4 2.2 1-.4 1.3-.1 1 .8-.3.7-1.3 1.2-2.3 1-.9-.2-2.4.3-3.4 1-1.5 1.1-1.6 1.3-.2 1.9 2.3.8 1.8 2.1-1.2 3.7-3.8 1.9-5.1 2.3-3.3 1 .8-.6 1-1.1.5-1.1-.6 0-1.9.9-2.8 2.1-2.3 2.6-4.2 2-4.1-1.4 0-2.1-.3-2.4-1.7-1.6-1 .5-2.6.6-3.6.3-1.5-.5-1.5-.4-.3.5 1.3.9 1.3 1.1 0 1.1s-1.3.1 0 1c1.2.7 1 .9-.7.7-1.2 0-1.9-.6-1.5-1.2 1-1.5 1.1-3.5.3-3.5-.4 0-1.6.7-2.7 1.5-1.9 1.5-1.9 1.5 0 .8 1.5-.5 1.8-.3 1.3 1-.3.9-.2 1.9.4 2.2 1 .7.3 2.5-1.1 2.5-.4 0-.7-1.1-.6-2.5.2-1.3 0-2.2-.5-1.9-.4.2-1.3-.4-1.9-1.5-.9-1.8-.8-2 .7-1.5 1.6.5 1.6.4-.1-1-1.1-.9-1.5-1.6-1-1.6.6 0 1.5.5 2.2 1.2.9.9 1.6.8 3-.5 1-.9 2.1-1.5 2.4-1.2.3.3.8-.1 1.2-1 .5-1.3.1-1.5-1.7-1-2 .5-2 .5-.4-.6 1.4-.8 2.2-.8 3 0 1.6 1.6 2.4 1.4 3-1 .3-1.2 1-1.8 1.6-1.4 1.8 1 1.2-.7-.6-2.2-1.6-1.3-1.6-1.3.5-.3 1.7.8 2.1 1.7 1.8 3.6-.3 1.7-.1 2.4.7 2.1.7-.3 1.1-1 .9-1.7-.5-2.1 1.9-4 4.5-3.5 2 .3 2.4.1 1.9-1.3-.4-1 .2-.7 1.5.8 1.5 1.8 1.9 2 1.5.7-.3-1.1-.2-1.6.4-1.2.6.3 1 .1 1-.4 0-.6-.8-1.1-1.7-1.1-1.5 0-1.6-.2-.3-1 2.1-1.3 3.2 1.2 2 4.5zm-30.3-3c0 .8-.4 1.2-.9.9-.5-.3-.6-1-.3-1.5.9-1.3 1.2-1.1 1.2.6zm-207.7-.1c0 .2-.7.7-1.6 1-.8.3-1.2.2-.9-.4.6-1 2.5-1.4 2.5-.6zm216 2.3c.8.1 2-.3 2.7-.9 1-.8 1.2-.7.7.5-.7 2-5 1.9-6.7-.2-1-1.2-.9-1.3.3-.6.8.5 2.2 1 3 1.2zm5.3 1.8c-.3.9-.8 1.4-1 1.1-.3-.3-.2-.9.2-1.5.9-1.6 1.5-1.3.8.4zm-207 3c-.3.9-.8 1.4-1 1.1-.3-.3-.2-.9.2-1.5.9-1.6 1.5-1.3.8.4zm11.2.5c-.3.5.2 2.2 1.1 3.7l1.6 2.8-2-2.5c-1.9-2.3-2.7-6.4-1-5.4.5.3.6.9.3 1.4zm185-.2c-.3.3-1.1 0-1.8-.7-.9-1-.8-1.1.6-.5 1 .3 1.5.9 1.2 1.2zm-180.5-.4c0 .2-.8 1-1.7 1.7-1.6 1.3-1.7 1.2-.4-.4 1.3-1.6 2.1-2.1 2.1-1.3zm-7.3 2.1c.4.4.3.5-.4.2-.6-.4-1.3-.2-1.5.5-.3.8-.6.6-1-.4-.7-1.7 1.5-1.9 2.9-.3zm182.8.6c-.6 3.2-1.2 3.4-1.2.4 0-1.4.3-2.5.8-2.5.4 0 .6 1 .4 2.1zm8.5-1.1c0 .5-.4 1-1 1-.5 0-1-.5-1-1 0-.6.5-1 1-1 .6 0 1 .4 1 1zm-180.6 2.9c.3.5-.1 1.1-.9 1.5-.8.3-1.7 0-2.1-.6-.4-.7-.3-.8.4-.4s1.2.2 1.2-.3c0-1.3.7-1.4 1.4-.2zm164.4 2.9c.4 3.5-.5 2.5-1.2-1.2-.3-1.6-.2-2.5.1-2.2.4.4.9 1.9 1.1 3.4zm4.2-2.8c0 .5-.7.7-1.5.4-.8-.4-1.5-.8-1.5-1 0-.2.7-.4 1.5-.4s1.5.4 1.5 1zm6 0c0 .5-.5 1-1.1 1-.5 0-.7-.5-.4-1 .3-.6.8-1 1.1-1 .2 0 .4.4.4 1zm-170.8 2.5c-.9 1.1-1.7 2.1-1.8 2.3-.1.2-.4-.4-.8-1.3-.4-1.1-.2-1.4.6-.9.7.5.9.2.6-.7-.4-1 .1-1.5 1.3-1.5 1.7 0 1.7.1.1 2.1zm5.8-2c0 .2-.6.8-1.3 1.4-1 .8-1.4.7-1.4-.2 0-.8.6-1.4 1.4-1.4.7 0 1.3.1 1.3.2zm150.4.6c-.2.4.2 1 .8 1.2.8.4.9.6.2.6-.6.1-1.7-.5-2.3-1.2-.8-1-.7-1.4.4-1.4.8 0 1.2.4.9.8zm-142.1 1.4c-.3.9-.8 1.4-1 1.1-.3-.3-.2-.9.2-1.5.9-1.6 1.5-1.3.8.4zm136.4 0c0 .8-.4 1.5-.9 1.5-1 0-1.1-1.4-.1-2.3.9-1 1-.9 1 .8zm-141.7-.1c0 .3-.4.8-1 1.1-.5.3-1 .1-1-.4 0-.6.5-1.1 1-1.1.6 0 1 .2 1 .4zm145.3 3c-.4.6-.8 2.4-.9 4.1-.2 2.7-.1 2.8 1.1 1.1.8-1 1.1-2.4.8-3.2-.3-.8 0-1.4.7-1.4.6 0 .8.4.5 1-.3.5-.2 1 .3 1 1.6 0 2.2-1.3 1.1-2.7-.9-.9-.8-1.3 0-1.3.6 0 1.1.3 1.1.8 0 .4.9 1.3 2.1 2 1.6 1 2 1 1.8 0-.4-3.4.1-4.2 1.7-2.2 1.5 1.8 1.5 1.8.9-.4-.4-1.3-.2-2.2.5-2.2.6 0 .8.4.5 1-.3.5.1 1 1 1s1.3-.5 1-1c-.3-.6-.1-1 .5-1s.9.8.6 1.8c-.4 1.3 0 1.8 1.5 1.9 1.7.2 1.9-.1 1-1-.6-.6-1.1-1.6-1.1-2.1 0-.6.8.1 1.7 1.4 1 1.4 1.8 2.9 1.8 3.5 0 .9.7 1 3.6.6.6 0 .9-.7.6-1.4-.4-1 .4-1.3 2.5-1.2 2.8.2 2.9.1 1.3-1.2-1.1-.7-1.3-1.3-.7-1.3 2 0 2.6.4 2.9 2.1.2 1.1-1.9 2.6-6.7 4.7-5.8 2.6-7 2.8-7 1.5 0-.9.8-2.6 1.8-3.7 1.6-2 1.6-2 0-.7-1.5 1.1-1.8 1.1-1.8 0-.1-.8-.8-.2-1.6 1.3-1.7 3.3-1.8 3.3-3.5 1.1-1.2-1.5-1.2-1.6.4-1 .9.3 1.7.2 1.7-.3 0-1.6-1.5-1.8-3.5-.4-1.3 1-1.5 1.4-.4 1.4 1.2 0 1.2.2-.1.9-.8.6-1.8.7-2.4.4-.5-.4-.6-.1-.1.7.5.8.4 1.1-.3.6-.6-.3-1.3-.2-1.7.3-.3.6.3.8 1.5.6 1.1-.2 2.2 0 2.5.6.4.5.1 1-.4 1-.6.1-1.7.2-2.3.3-.7.1-1.8-.5-2.5-1.4-1.4-1.6-1.7-.2-.5 1.7.9 1.4 6.3.7 7.3-.9.4-.6.5-1.8.2-2.7-.5-1.3-.3-1.4.7-.4 1 .9 1.7.9 2.6.2 1-.8 1.2-.5 1.1 1-.1 1.3-.6 2-1.4 1.7-.7-.3-1.3-.1-1.3.3 0 1.1-8.6 4.1-9.4 3.3-.3-.3-.6 0-.6.6 0 .9-.5.9-1.9 0-2.3-1.4-1.8-3 .6-2.1 1.1.4 1.4.2 1.1-.8-.3-.8-1.1-1.3-1.7-1.1-.8.1-.9-.2-.5-1 .6-.9.3-.9-.9.1-.9.7-1.4 1.7-1.1 2.2.3.5 0 .9-.5.9-.6 0-1.1-.4-1.1-.8 0-.5-.7-.9-1.5-.9s-1.1.5-.8 1c.4.6.1.7-.7.2-.8-.5-1.1-.4-.7.2.3.5-.4.9-1.6.8-1.2-.1-2.8.5-3.5 1.4-.8.9-1.1 1.1-.8.6.2-.6-.4-1.1-1.5-1.1-1.9 0-1.9.1-.3 1.3 1.2.9 1.3 1.3.5 1.3-1.1 0-1.1.3 0 1.6 1 1.3 1 1.7-.2 2.5-.8.5-1.8.9-2.4 1-.5 0-1.7.2-2.5.4-.8.1-2.2-.5-3-1.3-1.3-1.4-1.2-1.5.2-1 .8.4 2.1.1 2.8-.5 1-1 1.2-.8.6.8-.6 1.9-.5 1.9.8.2 1-1.4 1.5-1.5 1.9-.5.3.7.5 0 .4-1.5-.1-2.4-.3-2.6-1.3-1.2-.8 1-1.4 1.2-1.9.6-.3-.6-.1-1.1.6-1.1s1-.3.6-.6c-.3-.3-2.2.6-4.1 2.1-2.4 1.8-3.6 2.3-3.6 1.4 0-1.2-.2-1.2-.9-.1-.4.8-1.2 1.3-1.7 1.2-.5-.1-1 .3-1.2.9-.4 1.3 1.5 1.5 2.2.2.5-.8 2-.8 4.4-.2.1.1-.3.7-1 1.5-1 1-1.5 1.1-2.1.2-.6-.8-1-.8-1.4.2-.2.6-.9 1-1.4.6-.5-.3-.9-.1-.9.5 0 .5-.8 1-1.7 1-2.2 0-4.4.5-5.8 1.2-.5.3-2.2.5-3.7.4-1.6-.1-2.8.2-2.8.7 0 .5-.4.6-1 .3-.5-.3-1-.2-1 .3 0 .4-1.5.8-3.2.7-1.8-.1-3.7.1-4.3.4-1.2.6-2.9 1-7 1.5-1.6.3-3 .5-3 .6 0 .2-5 .8-10.5 1.3-1.4.1-2.8.6-3.2 1.2-.5.6-.8.5-.8-.4 0-1-.3-1.1-1.3-.3-.7.6-2.5.9-4 .6-1.5-.2-2.7-.1-2.7.4 0 1.3-7.4.8-8.3-.6-.5-.7-1.2-1-1.7-.7-.9.6-2.6-3.3-2.1-5 .1-.5-.1-.7-.5-.3-.4.4-1.3.3-2.1-.3-1-.9-1.3-.8-1.3 0 0 .7-.5.9-1.1.5-.8-.5-.8-.8 0-1.4.9-.5.8-1-.2-1.8-1.1-.9-1.8-.8-3.1.7-1.8 1.9-4.6 1.8-4.6-.1 0-.6.7-.7 1.6-.4.8.3 1.2.2.9-.4-.3-.6.1-.7.9-.4 1.8.7 2.2-1.1.4-2.2-.6-.4-.8-.3-.5.3.7 1.1-2.2 1.1-4.1-.1-.7-.4-1.5-.1-1.8.9-.6 1.4-.8 1.4-2.5-.1-1-.9-1.5-2.2-1.2-2.8.4-.6.9-2 1-3 .5-2.7 1.1-3.2 2.5-1.8.9.9 1.5.9 2.5 0 1-.8 1.7-.8 2.6.1.9 1 .8 1.2-.7.9-1-.1-2.1.2-2.3.8-.2.7 1.3 1 4.3.9 3.1-.1 5.3.4 6.9 1.7 2 1.6 2.4 1.6 2.9.2.7-1.9 3.1-1.3 3.1.7.1 2.2 1.5 4 2.7 3.3.6-.4.5-.9-.3-1.5-.7-.4-1.1-1-.9-1.3.3-.2 1.4.2 2.4 1 1.6 1.1 1.7 1.6.6 2.9-.8.9-.8 1.5-.2 1.5.6 0 1.4-.5 1.7-1 .4-.6 1.6-.8 2.8-.4 1.9.6 2 .5.9-.9-1.8-2.1-.7-3.7 2.1-2.9 2 .5 2.1.4.7-1.4-1.4-1.8-1.4-1.8.2-.5 2.2 1.6 1.3 3.5-1.3 2.8-2.4-.6-2.4.5-.1 2.5 1.2 1.1 3.5 1.5 7.5 1.3 3.5-.1 5.3.1 4.5.6-.7.5-1 .9-.6.9.3 0 1.4.3 2.3.6.9.4 1.5.3 1.4-.2-.1-.5-.1-1.6 0-2.4.1-1.3.2-1.3 1.1 0 .5.9.5 1.9-.2 2.7-.6.7-.6 1.3-.1 1.3 1.2 0 4.3-3.7 3.6-4.4-.4-.3-.1-.6.5-.6 1.5 0 1.6 1.7.2 2.5-.6.4-.8 1.1-.4 1.6.3.6 1.2.1 2.1-1.1 1.2-1.7 1.3-2.4.1-3.7-1.1-1.4-1.1-1.6.1-.8 1.1.6 1.3.4.8-1.1-.7-1.8-.7-1.8.7-.1.8 1.1 1.2 2.5 1 3.2-.3.7 0 1.6.7 2.1.7.4 1 .3.5-.4-.3-.6-.1-1.4.5-1.8.7-.4.9-.3.5.4s.1 1 1.4.9c2.3-.2 2.6-1.5.5-2.3-.8-.4-1.5-1-1.5-1.5 0-1.5 2.9.3 3.5 2.2.4 1.1 1.1 1.7 1.6 1.4.5-.4.5-1.4-.2-2.6-.6-1.2-.8-2.3-.6-2.6.3-.2.8.5 1.2 1.7.4 1.3 1.2 1.9 2.1 1.6.9-.3 1.2-.1.9.4-.3.6-.4 1-.1 1 .2 0 1.3.3 2.3.7 1.5.6 1.6.4.5-.9-.7-.8-.9-2.3-.6-3.3.6-1.5.4-1.6-1.3-.7-1.7.9-2.3.7-4.1-1.7-1.4-2-1.6-2.8-.7-2.8.8 0 1.2.4.9.9-.3.4 0 .8.5.8.6 0 1.1.7 1.1 1.5 0 1.3.4 1.4 2 .5 1.1-.6 1.8-1.6 1.4-2.1-.4-.7.1-.7 1.4 0 2.7 1.4 3.3 1.4 3-.1-.5-2.4 3.9-2 6 .6 1 1.4 2.2 2.2 2.6 1.9.3-.4-.3-1.7-1.5-2.9-1.7-1.8-1.9-2.6-.9-4.1 1-1.6 1-1.5.5.7-.6 2.4-.5 2.4.9.6.9-1.1 1.6-1.5 1.6-.9 0 .7-.5 1.5-1 1.8-.6.4-.7 1.1-.4 1.7.4.5 1.4-.2 2.4-1.7s2.1-2.5 2.5-2.3c.3.2 1.3-.8 2-2.2.8-1.4 1.4-2.1 1.5-1.7 0 1.7-2.1 4.7-3.1 4.2-.5-.4-.9-.1-.9.4 0 1.7 3 1.3 3.6-.4.5-1.1 1.1-1.2 2.6-.4 1.5.8 1.9.7 1.6-.3-.1-.7.4-2.3 1.1-3.6 1-1.8 1-2.6 0-3.8-1-1.2-.9-1.3.5-.8 2 .8 2 2.4.2 4.9-1.4 2-1.1 4.5.6 4.5.6 0 .8-.6.5-1.4-.3-.8.1-2.2.9-3.3 1.1-1.4 1.4-1.4 1.3-.3-.2 2.7.1 4 1 4 .5 0 .8-.8.7-1.8-.1-1.2.5-1.6 2.4-1.4 1.9.2 2.2 0 1.2-1-.6-.6-1.2-1.9-1.1-2.7 0-1 .4-.7.9.6.5 1.3 1.4 2.3 2 2.3.8 0 .8-.6 0-1.9-.8-1.6-.7-2.2.6-2.9.9-.5 1.5-1.3 1.4-1.8-.1-.5.4-1 1.2-1.2.9-.2.8 0-.2.7-.8.6-1 1.1-.5 1.1.6 0 .2.7-.7 1.4-1.7 1.2-1.7 1.4.2 3.6 1.8 2.1 2.5 2 2.1-.3-.1-.5.3-.6.9-.2.5.3 1 .4 1 .1 0-.2.3-1.2.7-2.1.6-1.6.4-1.6-2.3 0l-2.9 1.7 2.4-2.1c1.3-1.2 1.9-2.1 1.5-2.1-.5 0-.1-.5.9-1.1 1.5-.9 1.6-1.3.5-2.7-1.2-1.5-1.1-1.6.4-.3 1 .7 1.5 1.8 1.1 2.5zm-137.6-1.1c0 .8-.6 1.4-1.4 1.4-.9 0-1-.4-.2-1.4.6-.7 1.2-1.3 1.4-1.3.1 0 .2.6.2 1.3zm114 .2c0 .8-.4 1.2-.9.9-.5-.3-.6-1-.3-1.5.9-1.3 1.2-1.1 1.2.6zm10.4.2c1.3 1.6 1.2 1.7-.3.4-1-.7-1.8-1.5-1.8-1.7 0-.8.8-.3 2.1 1.3zm3.8-.4c.8 1 .7 1.4-.2 1.4-.8 0-1.4-.6-1.4-1.4 0-.7.1-1.3.2-1.3.2 0 .8.6 1.4 1.3zm-140.8 1.4c1.3 1.6 1.2 1.7-.3.4-1.7-1.3-2.2-2.1-1.4-2.1.2 0 1 .8 1.7 1.7zm6.2.5c.4-.1.7.2.7.8 0 1.5-1.2 1.2-4-1.1l-2.5-2 2.5 1.2c1.4.7 2.8 1.2 3.3 1.1zm4.2 1.6c-.3.3-1.1 0-1.8-.7-.9-1-.8-1.1.6-.5 1 .3 1.5.9 1.2 1.2zm126 .3c-.4.5-1.2.9-1.8.8-.9 0-.8-.2.1-.6.6-.2.9-1 .6-1.5-.4-.7-.2-.8.5-.4.6.4.9 1.2.6 1.7zm-103.4.6c1.3 1.6 1.2 1.7-.3.4-1.7-1.3-2.2-2.1-1.4-2.1.2 0 1 .8 1.7 1.7zM368 739c-.9.6-.9.9.1 1.4.8.3.4.3-.8.1-1.2-.3-2.4-.1-2.8.5-1.1 1.8-2.3 1.1-1.8-1 .4-1.5 1.1-1.9 2.4-1.5 1.1.4 1.9.2 1.9-.5 0-.6.5-.8 1.1-.4.8.5.8.9-.1 1.4zm33 .1c0 .5-.4.9-1 .9-.5 0-1-.5-1-1.1 0-.5-.5-.7-1.2-.3-.7.4-.8.3-.4-.4.7-1.2 3.6-.5 3.6.9zm7.5-.2c-.2 1.8-2.1 2.6-3 1.2-.4-.7.1-.8 1.2-.4 1.5.6 1.6.4.6-.8-1-1.3-1-1.6.1-1.6.8 0 1.3.7 1.1 1.6zm100.5-.5c0 .2-.8 1-1.7 1.7-1.6 1.3-1.7 1.2-.4-.4 1.3-1.6 2.1-2.1 2.1-1.3zm-130.5 1.8c.5-.4.5-.1.1.6-.6.9-1.1 1-2 .3-.7-.6-1.7-.7-2.1-.3-.5.4-.5.1-.1-.6.6-.9 1.1-1 2-.3.7.6 1.7.7 2.1.3zm116.5-.6c0 .8-1.9 1.3-2.4.6-.3-.5.1-.9.9-.9s1.5.2 1.5.3zm9.4.2c.3.5-.1.9-.9.9s-1.2-.4-.9-.9c.3-.4.7-.8.9-.8.2 0 .6.4.9.8zm17.1 1c-.3.3-1.1 0-1.8-.7-.9-1-.8-1.1.6-.5 1 .3 1.5.9 1.2 1.2zm-108.7 1.7c-.3.3-.9-.2-1.2-1.2-.6-1.4-.5-1.5.5-.6.7.7 1 1.5.7 1.8zm9.1.1c.5-.4.7.3.3 1.6-.3 1.4-.2 1.9.6 1.4.7-.4 1.2-.5 1.2-.2 0 1.9-2.1 1-4-1.7-1.3-1.8-1.6-2.6-.7-1.9.9.8 2 1.1 2.6.8zm92.1-1.1c0 .2-.6.8-1.3 1.4-1 .8-1.4.7-1.4-.2 0-.8.6-1.4 1.4-1.4.7 0 1.3.1 1.3.2zm-21.2 3c-.3.3-.9-.2-1.2-1.2-.6-1.4-.5-1.5.5-.6.7.7 1 1.5.7 1.8zm11.5-1.2c.4-.3.7-.1.7.5 0 1.7-1.6 1.5-3.1-.6-1.2-1.5-1.2-1.6.2-.5.9.7 1.9 1 2.2.6zm-85.5 2.2c-.3.3-.9-.2-1.2-1.2-.6-1.4-.5-1.5.5-.6.7.7 1 1.5.7 1.8zm12.3-1.2c-.6.8-.7 1.8-.3 2.2.4.5.1.5-.6.1-1-.6-1-1.1-.1-2.2.6-.8 1.4-1.4 1.6-1.4.3 0 0 .6-.6 1.3zm-37.9 1.1c1-.6 1.1-.4 0 .7-1 1.1-1.5 1-3-.6-1.5-1.7-1.5-1.8 0-.6.9.7 2.3.9 3 .5zm37.2 3.5c-.5.6-3.4-2-3.4-3 0-.5.8-.1 1.8.8 1 1 1.7 2 1.6 2.2zm16.1-3c.3.5.2 1.2-.3 1.5-.5.3-.9-.1-.9-.9 0-1.7.3-1.9 1.2-.6zm50 .1c-.3.5-1.2 1-1.8 1-.7 0-.6-.4.3-1 1.9-1.2 2.3-1.2 1.5 0zm36.5.5c1.9 1 2.1 1.5 1 1.8-8.6 2.8-8.2 2.8-7.5.4.4-1.5.3-1.8-.3-.9-.5.7-1.3 1.2-1.8 1-.5-.2-1 .1-1 .7-.1.5.2.9.7.7.5-.1.9.3.9.8 0 1.3-2.7 1.3-3.6-.1-.8-1.4 1.5-3.7 4.3-4.2 1.2-.2 2.6-.6 2.9-1 1-.9 1.5-.9 4.4.8zm-98.5 1.6c-.4.5-1.2.9-1.8.8-.9 0-.8-.2.1-.6.6-.2.9-1 .6-1.5-.4-.7-.2-.8.5-.4.6.4.9 1.2.6 1.7zm6.2-.6c0 .8-.4 1.2-.9.9-.5-.3-.6-1-.3-1.5.9-1.3 1.2-1.1 1.2.6zm-41.6 1.2c1.3 1.6 1.2 1.7-.3.4-1-.7-1.8-1.5-1.8-1.7 0-.8.8-.3 2.1 1.3zm50.4-.7c-.3.5-1.2 1-1.8 1-.7 0-.6-.4.3-1 1.9-1.2 2.3-1.2 1.5 0zm28.6 1.3c-1 .9-1.1.8-.5-.6.3-1 .9-1.5 1.2-1.2.3.3 0 1.1-.7 1.8zm-41.1.7c0 .5-.4 1-1 1-.5 0-1-.5-1-1 0-.6.5-1 1-1 .6 0 1 .4 1 1zm-27.1 2.6c-.6.8-1.6 1.4-2.1 1.4-.7 0-.6-.5.1-1.3.6-.8.8-1.7.4-2.1-.4-.4 0-.4 1 0 1.4.5 1.5.9.6 2zm36.6-1.6c-.4.6-.1 1.8.7 2.7 1.2 1.5 1.1 1.5-.9.2-2.6-1.6-2.9-2.5-1-3.2 1.8-.8 1.9-.8 1.2.3zm21.5.5c-.7.9-1.5 1.3-1.7 1.1-.3-.3-1.5-.1-2.7.4-1.6.6-2.3.5-2.3-.4 0-.7 1.2-1.1 2.9-1 1.5.1 3.1-.2 3.4-.7.3-.5.8-.9 1.1-.9.3 0 0 .7-.7 1.5zm12.6-.6c-.4.5 0 1.1.6 1.4.7.2-.1.4-1.9.3-1.7 0-2.9-.4-2.6-.9.2-.4.8-.5 1.3-.2s1.1.1 1.5-.5c.3-.5.8-1 1.1-1 .3 0 .3.4 0 .9zm-24.6 4.6c-.7.8-1.6 1.5-2.1 1.5s-.1-.8.9-1.8c2-2.2 3.1-1.9 1.2.3zm13.3-.8c-.4 1.1-.3 1.4.5.9.8-.5 1-.2.5 1-.5 1.5-.7 1.5-1.5 0-.5-.9-.6-2.1-.3-2.6 1-1.6 1.5-1.2.8.7zm-10.3.8c0 .8-.4 1.5-1 1.5-.5 0-.7-.7-.4-1.5.4-.8.8-1.5 1-1.5.2 0 .4.7.4 1.5zm3.5.5c.3.5.1 1-.4 1-.6 0-1.1-.5-1.1-1 0-.6.2-1 .4-1 .3 0 .8.4 1.1 1z"/><path d="M635 687.9c0 .6.4 1.2.8 1.5.5.3.9-.1.9-.9s-.4-1.5-.9-1.5c-.4 0-.8.4-.8.9zM621 697c-.9.6-1 1-.3 1 .6 0 1.5-.5 1.8-1 .8-1.2.4-1.2-1.5 0zM618 697.9c0 .6.4 1.3 1 1.6.6.3.7-.1.4-.9-.7-1.8-1.4-2.1-1.4-.7zM622.1 698.9c-.9.6-1 1.1-.2 1.5.6.4 1.1.2 1.1-.4 0-.6.5-.8 1.2-.4s.8.3.4-.4c-.8-1.4-.7-1.4-2.5-.3zM206.4 682.9c.4.6-.2 2.3-1.3 3.7-1.2 1.5-2.1 2.1-2.1 1.5 0-.7-.5-.9-1-.6-.6.4 0 1.5 1.5 2.7 2.6 2 3.4 4 1.4 3.5-.6-.1-1.4.5-1.6 1.3-.4 1.3-.3 1.3.6 0 .6-.8 1.1-1.1 1.1-.6 0 .6.5.5 1.2-.2.9-.9.7-1.6-.7-3.2-1-1.1-1.4-2-.9-2 1.3.1 4.5 2.6 3.9 3.1-.2.3.7.6 2 .7 2.8.2 2.9-.1 1.4-3-.8-1.5-.8-2.3.2-3.2.9-.8 1-.8.5.1-.4.7-.1 2.3.6 3.5 1.6 3 2 5.8.9 5.8-.5 0-1.2-.5-1.4-1-.3-.6-.4-.5-.3.2.2.7 1.1 1.3 2.1 1.3s2 .6 2.3 1.3c.2.6.8 1.2 1.4 1.2.7 0 .6-.5-.1-1.4-.7-.9-.8-1.7-.2-2 .5-.3 1.1 0 1.4.6.2.8.8.9 1.3.4s.4-1.1-.3-1.3c-1.4-.5-1.8-2.4-.5-2.2 1.8.3 3.3-.2 2.8-1-.3-.4.2-1.7 1-2.7.9-1 1.3-1.4 1-.7-.4.6-.2 1.4.4 1.8.6.4.8 1.1.5 1.6-.4.5-.1.9.5.9 1.7 0 .5-5.5-1.3-5.8-1-.2-1.7.1-1.7.6 0 .6-.8.9-1.7.8-1-.2-2.4.4-3.1 1.3-1.1 1.4-1.2 1.3-.8-.9.3-1.4.3-2 0-1.4-.3.8-1.6.1-3.6-1.7-1.8-1.6-3.4-2.6-3.6-2.4-.3.2-1.4 0-2.5-.6-1.4-.8-1.8-.8-1.3 0zm5.5 2c.2.1-.2.7-.8 1.5-.9 1.1-1 2-.1 3.5 1.4 2.7.6 2.6-3.2 0-2.7-2-2.8-2.2-1.3-3.9 1.4-1.5 2.3-1.7 5.4-1.1zm3.5 5.3c-.3.4 0 .8.6.8.7 0 1 .7.6 1.7-.4 1.2.1.9 1.2-.6 1.4-1.7 2.1-2 2.7-1.2.4.7.4 1.5.1 1.8-.3.4-.6 0-.6-.8-.1-.8-.8-.1-1.6 1.5-1.2 2.2-1.8 2.5-2.4 1.5-.5-.7-.7-1.6-.4-2 .2-.4 0-1-.6-1.4-.6-.4-.8-1.1-.5-1.6.4-.5.1-.9-.5-.9s-.8-.5-.4-1.1c.4-.8.9-.7 1.5.2.4.7.5 1.7.3 2.1z"/><path d="M206.9 686.6c-.8.9-.5 1.6 1.2 2.4 1.6.9 2 .9 1.4.1-.4-.7-.2-1.8.4-2.5.8-.9.7-1.3-.4-1.3-.9 0-2 .6-2.6 1.3zM227.5 689c-.3.6-.2 1 .3 1 1.3 0 1.1 3-.2 3.1-.6.1-2 .2-3 .3-1.5.1-2 .9-2.1 3.8-.2 3.1.1 3.6 1.2 2.7 1.9-1.6 4.3.6 3.7 3.6-.2 1.3 0 2.6.6 3 .6.4.7-.1.3-1.1-.4-1.2-.3-1.5.5-1 .7.4 1.2.2 1.2-.3 0-.6-.5-1.1-1.1-1.1-.8 0-.8-.4.1-1.5.6-.8.8-2 .4-2.6-.5-.9-.2-1 1.1-.6.9.4 2.4.2 3.3-.5 1.3-1.1 1.4-1 .8 1-.5 1.4-.3 2.2.4 2.2.6 0 .8-.5.5-1-.3-.6-.2-1 .3-1s1.4 1.1 2 2.5c.7 1.5.8 2.5.2 2.5-.6 0-1-.5-1-1 0-.6-.5-1-1.2-1-.8 0-.7.6.4 1.6 1.6 1.7 4.3 1.1 3.2-.7-.3-.5 0-1.6.6-2.4.9-1.1.9-1.5.1-1.5-.6 0-1.1.5-1.1 1.2 0 .6-.3.8-.7.4-.5-.4 0-1.4 1.1-2.1 1.8-1.3 1.8-1.4-.2-1.2-1.1 0-1.8.5-1.5 1.1.3.5.1.6-.6.2-.6-.4-.8-1.2-.5-1.8.4-.7.2-.8-.4-.4-.7.4-1.2.2-1.2-.4 0-1 4-.7 6 .5.5.3 1 .1 1-.4 0-.6-.8-1.1-1.7-1.1-1.5 0-1.6-.2-.3-1 2-1.3 3.6 1.6 2 3.6-1 1.1-1 1.4 0 1.4s1 .3 0 1.5c-.7.9-1 1.8-.7 2.2.4.3.1 1.3-.5 2.1-1.8 2.1-1.8 4 0 5.4 1.5 1.2 1.6 1.1.3-.5-1.1-1.4-1.1-1.7 0-1.7 1 0 1.1-.2.2-.8-.8-.5-.6-1.3.7-3 1-1.2 2.1-2.2 2.4-2.2.9 0 .2 2.4-.9 3.2-.5.4-.6 1-.2 1.5 1 .9 2.8-1.8 2-3-.3-.5 0-.7.8-.5.8.3 1.3 1.1 1.2 1.7-.4 1.6.6 1.4 2.4-.5 1.5-1.4 1.4-1.5-.2-1.2-1 .2-2-.2-2.2-.7-.2-.6 1-1.1 2.7-1 1.6 0 3 .3 3 .7 0 .5.3.7.8.7.4-.1.9 0 1.2.1 1.9.7 4.1.7 4.6-.1.3-.5 1-.7 1.5-.4.5.4.9.2.9-.4 0-1.7-2-2.3-2.6-.8-.8 2.1-3.3 1.5-5.5-1.4-1.6-2.2-1.8-2.3-2.5-.5-.6 1.6-.8 1.7-1.6.2-.5-.9-.6-2.2-.2-2.9.4-.6-.2-.4-1.3.5-2.1 1.9-3.8 2.4-2.8.9.3-.5-.6-2.2-1.9-3.7-2-2.4-2.6-2.6-3.9-1.5-.9.7-2.1 1-2.6.7-.5-.4-1.7.4-2.5 1.6-1.1 1.6-1.6 1.8-1.8.8 0-.8-.2-2-.3-2.5-.2-.6-.3-1.5-.4-2-.2-1.6-3.9-3.6-4.6-2.5zm3.7 3.9c-.1.7.2 2.1.8 3.1.7 1.4.7 2 0 2-.5 0-1-.8-1-1.7 0-1.5-.2-1.5-1.4.2-.8 1.1-1.1 2.6-.8 3.5.4 1.2.1 1.1-1.6-.3-1.1-1.1-2.6-1.6-3.1-1.2-.6.3-1.1.2-1.1-.4 0-.5.5-1.3 1.1-1.7.8-.4.7-.9-.2-1.6-1.1-.8-1.1-.9.1-.5.8.2 1.4 1 1.3 1.6-.2.6.2 1.1.7 1.1.6 0 1-.6 1-1.4 0-.8 1-1.8 2.1-2.1 1.7-.6 1.9-.9.8-1.7-1.2-.8-1.1-.9.1-.5.8.2 1.4 1 1.2 1.6zm13.7 4.8c-.1.5-.1 1.5 0 2.2.1 1.2.4 1.2 1.3.3 1.5-1.5 2.8-1.6 2.8-.2 0 .5-.3.9-.7.9-.5-.1-1 0-1.3.1-2 .8-4.8.5-4.2-.4.4-.6.7-1.4.8-1.9.3-1.5.4-1.7.9-1.7.3 0 .4.3.4.7z"/><path d="M228 696c-.6 1.1-.8 2-.6 2 .3 0 1-.9 1.6-2 .6-1.1.8-2 .6-2-.3 0-1 .9-1.6 2zM200.5 691.6c.9.9 1.9 1.3 2.3 1 .3-.4 0-1.1-.8-1.6-2.4-1.5-3.3-1.1-1.5.6zM207.8 695.1c-1 .5-1.8 1.5-1.8 2.2 0 .7.4.6 1-.3.9-1.3 1.1-1.3 2.1 0 .9 1.3 1 1.3.6-.2-.3-.9-.1-1.9.6-2.2.7-.2.8-.5.2-.5-.5 0-1.8.4-2.7 1zM211 698c0 .5.5 1 1.1 1 .5 0 .7-.5.4-1-.3-.6-.8-1-1.1-1-.2 0-.4.4-.4 1zM231.5 701.1c-.4.6-.5 1.2-.2 1.5.2.3.7-.2 1-1.1.7-1.7.1-2-.8-.4zM217.5 702.9c-.3.5-.2 1.2.3 1.5.5.3.9-.1.9-.9 0-1.7-.3-1.9-1.2-.6zM233.1 703.6c0 1.1.3 1.4.6.6.3-.7.2-1.6-.1-1.9-.3-.4-.6.2-.5 1.3zM223.6 703.9c-.3.5.2 1.5 1.2 2.2 1.5 1.2 1.6 1.2.5-.2-.7-.9-1-1.9-.6-2.2.3-.4.4-.7 0-.7-.3 0-.8.4-1.1.9zM265.9 704.7c-.8.9-.6 1.1 1 .8 1.2-.2 2.1.1 2.1.8 0 1.2 2-1.2 2-2.5 0-1.1-4-.5-5.1.9zM235.1 705.8c.3 1.9-.2 2.5-1.1 1.2-.7-1.2-.9-1-.7.7.1 2.1.2 2.2 2.2.5 1.1-.9 2.1-1.7 2.3-1.8.2-.1-.4-.4-1.2-.7-.9-.4-1.5-.3-1.5.1zM276.4 707.2c-.4.7-.3 1 .1.5.5-.4 1.7 0 2.7 1 1.6 1.4 1.8 1.4 1.8.1 0-.9-.7-1.9-1.6-2.2-2.1-.8-2.2-.8-3 .6zM255.4 711.9c.1 1.7.5 3.3.8 3.6.3.3.4-.8.3-2.5-.1-1.7-.5-3.3-.8-3.6-.3-.3-.5.8-.3 2.5zM283 710.1c0 .5.5.7 1 .4.6-.3 1-.8 1-1.1 0-.2-.4-.4-1-.4-.5 0-1 .5-1 1.1zM259.2 711.6c-.7.8-.8 1.4-.3 1.4 1 0 2.5-1.9 2-2.5-.2-.1-1 .3-1.7 1.1zM300.6 710.8c-.3.6-.1 1.4.5 1.7 1.4.9 2 .2 1-1.4-.6-.8-1.1-.9-1.5-.3zM245.4 711.8c.4.3 1.4.7 2.2.8.9.1 1.3 0 1-.4-.4-.3-1.4-.7-2.2-.8-.9-.1-1.3 0-1 .4zM295.9 712.3c.6.8.7 1.8.3 2.2-.4.5-.2.5.5.1.6-.3 1.4-.2 1.8.4.3.5 1 1 1.5 1s-.2-1.1-1.6-2.5c-2.6-2.6-4.4-3.5-2.5-1.2zM237.6 713.8c-.3.5.1.9.9.9s1.2-.4.9-.9c-.3-.4-.7-.8-.9-.8-.2 0-.6.4-.9.8zM265.6 715.3c.3 1 .9 1.5 1.2 1.2.3-.3 0-1.1-.7-1.8-1-.9-1.1-.8-.5.6zM263 716c0 .5.5 1 1.1 1 .5 0 .7-.5.4-1-.3-.6-.8-1-1.1-1-.2 0-.4.4-.4 1zM279 716.9c0 .5.7 1.1 1.4 1.4 1 .4 1.3.1.9-.9-.6-1.5-2.3-1.9-2.3-.5zM253 718.1c0 .5.5.7 1 .4.6-.3 1-.8 1-1.1 0-.2-.4-.4-1-.4-.5 0-1 .5-1 1.1zM265.5 719.1c-.4.6-.5 1.2-.2 1.5.2.3.7-.2 1-1.1.7-1.7.1-2-.8-.4zM271 718.4c0 .2.8 1 1.8 1.7 1.5 1.3 1.6 1.2.3-.4s-2.1-2.1-2.1-1.3zM315.4 718.7c.4.7.2 2.2-.4 3.4-1.5 2.7-.5 3.7 2.2 2 1.8-1.1 2-1.1 1.5.3-.9 2.2 3.2 5.8 5.8 5.2 1.9-.5 6 1.6 5 2.6-.3.3.6 1 2 1.6 3.2 1.5 4.3-.2 1.9-2.9-.9-1-1.3-1.9-.7-1.9.5 0 1.8.9 2.8 2 1.4 1.6 1.5 2.3.6 3.4-1 1.2-.8 1.7 1 2.6 1.2.7 1.9.8 1.5.2-.3-.6 0-1.3.6-1.6.7-.3.2-.3-1.2.1-2.2.5-2.3.4-1.2-1 .8-.9 1-2.1.6-2.8-.4-.7-.2-1 .7-.7.8.3 1.3 1.1 1.1 1.7-.1.7.2 1 .7.7.5-.4 1.1-.3 1.4.1.2.5.2.3.1-.4-.2-.7.1-1.5.6-1.8.6-.4 1-.1 1 .5s.5.8 1.1.4c.8-.5.8-.9-.1-1.4-.8-.5-.7-.9.5-1.4 1.4-.5 1.5-.9.5-2.1-1-1.2-1.6-1.3-2.7-.3-1.6 1.3-5 2.2-3.8 1 .4-.4 1.2-.7 1.8-.7.5 0 1.2-.5 1.4-1.1.2-.6-.3-1.1-1.2-1.1-.8 0-1.5.4-1.5.9s-.6.6-1.2.1c-.7-.4-2.6-.8-4.1-.8-1.5 0-3.2-.7-3.7-1.5-.9-1.3-1-1.3-1 0-.1 1-.8.7-2.3-1.1-1.2-1.4-2.8-2.4-3.4-2.3-.7.1-2 .2-2.9.3-.8 0-1.2.6-.9 1.1.4.6 1 .8 1.5.5 1.1-.7 2.8 1.7 2.5 3.7-.2 1.2.2 1.5 1.3 1.1 1.3-.5 1.4-.3.5.7-.6.7-1.9 1-2.8.6-1.3-.5-1.4-1-.4-2.7.9-1.7.8-2-.2-1.4-.8.6-1 .4-.4-.5.5-.8.4-1.1-.3-.6-.6.3-1.4.2-1.7-.4-.5-.8-1.1-.7-2.1.1-.8.6-1.7.9-2 .6-.4-.3.8-1.5 2.6-2.5 1.7-1.1 2.7-2.3 2.2-2.6-.6-.4-1.4-.2-1.7.4-.5.8-1.2.7-2.3-.2-1.1-.9-1.4-1-.8-.1zm10.9 5c1 1.3 2.1 2.2 2.5 2.2.4-.1 1 0 1.5.1.4.1 2.1.3 3.9.4 2.1.1 3.2.6 3.4 1.8.4 2.7-1.1 3-3.1.8-1.4-1.5-2-1.7-2.6-.8-.5.7-.1 2 .8 3s1.4 2.1 1.1 2.3c-1 1-7.9-6.5-7.2-7.7.5-.8.2-.9-1-.5-1.1.4-1.5.3-1.1-.4.4-.6-.1-1.7-1.1-2.5-1.4-1-1.5-1.4-.4-1.2.8.2 2.3 1.3 3.3 2.5zM321 726c0 .5-.2 1-.4 1-.3 0-.8-.5-1.1-1-.3-.6-.1-1 .4-1 .6 0 1.1.4 1.1 1zm21.9 3.9c-2.4 1.9-3.9 1.9-3.9 0 0-.6.4-.8.8-.5.4.2 1.4.1 2.2-.5 2.7-1.6 3.3-.9.9 1z"/><path d="M328.1 727.6c1.4 1.7 3.2 1.9 2.7.2-.2-.6-1.2-1.2-2.2-1.4-1.4-.2-1.5 0-.5 1.2zM334 727.5c0 .2.6.8 1.3 1.4 1 .8 1.4.7 1.4-.2 0-.8-.6-1.4-1.4-1.4-.7 0-1.3.1-1.3.2zM261 720c0 .5.5 1 1 1 .6 0 1-.5 1-1 0-.6-.4-1-1-1-.5 0-1 .4-1 1zM275.5 719.9c-.3.5-.2 1.2.3 1.5.5.3.9-.1.9-.9 0-1.7-.3-1.9-1.2-.6zM279 721c-.9.6-1 1-.3 1 .6 0 1.5-.5 1.8-1 .8-1.2.4-1.2-1.5 0zM282.8 721.7c.9.3 1 .9.3 1.7-.8.9-.7 1.3.4 1.3.7 0 1.3-.5 1.2-1.1-.1-.6.5-1 1.3-.8.8.2 1.2 0 .7-.4-.4-.4-1.8-.9-3-1-1.2-.2-1.6 0-.9.3zM292.5 722c-.5.8-.4 1.1.2.7 1-.7 2.3 1.2 2.9 4.1.5 2.7 1.2 2.2 1-.7 0-1.6-.3-2.8-.5-2.5-.2.2-.9-.4-1.6-1.3-.9-1.3-1.4-1.3-2-.3zM303.4 723.2c-.3.4-.2.8.2.8s-.1.7-1.2 1.6c-1.9 1.5-1.9 1.5.1.5 1.1-.5 2.8-1.6 3.8-2.3 1.7-1.3 1.7-1.4-.3-1.4-1.2 0-2.4.4-2.6.8zM287.9 724.7c-1.2 1.6-1.2 1.7.2.6.9-.7 1.9-1 2.2-.6.4.3.7.1.7-.5 0-1.7-1.6-1.5-3.1.5zM306.8 725.2c-1.3 1-1.5 1.7-.7 2.8.9 1.3 1 1.3.6-.2-.4-1.2 0-1.6 1.4-1.5 1.4.1 1.8.6 1.3 2.2-.4 1.4-.3 1.6.4.7.5-.8 1.1-1.2 1.3-1.1.2.2 1.3-.2 2.4-.9 1.1-.6 1.5-1.2.8-1.2-.6 0-1.5.5-1.8 1-.4.6-1.3.2-2.3-1-1.4-1.8-2-1.9-3.4-.8zM275 726.4c0 .2.8 1 1.8 1.7 1.5 1.3 1.6 1.2.3-.4s-2.1-2.1-2.1-1.3zM315.7 727.4c-.4 1-.3 1.5.3 1.1.6-.3 1-.1 1 .6s.3 1 .6.6c.3-.3.2-1.3-.4-2.2-.8-1.6-.9-1.6-1.5-.1zM349.7 728.4c-.4 1.1-.1 1.3 1 .9 1.2-.5 1.4-.3.8.7-.5.8-.4 1.1.3.6 1.2-.7.5-3.6-.8-3.6-.4 0-1 .7-1.3 1.4zM313.2 730.2c.2.7-.2 1.2-.9 1.1-1.2-.2-1.2 2.3 0 3.2.4.3.5.2.2-.2-.3-.3.2-1.4 1.1-2.4 1-1.1 1.2-1.9.4-2.4-.6-.4-.9-.1-.8.7zM319 730c0 .5.5 1 1.1 1 .5 0 .7-.5.4-1-.3-.6-.8-1-1.1-1-.2 0-.4.4-.4 1zM358.5 730.8c-.3.8-.1 2 .5 2.7.9 1 .7 1.3-.7 1.1-1-.2-1.7-1-1.5-2 .2-.9-.2-1.6-.8-1.6-.5 0-.9.3-.9.7.3 2-.2 3.4-1 2.9-1.5-1-4.4 4.3-3.2 5.8.6.7.8 1.6.4 1.9-.3.4-.1.7.5.7 1.5 0 1.5-1.3.1-2.7-.8-.8-.7-1.6.2-3.1 1.1-1.7 1.4-1.8 2.7-.6.7.8 1.9 1.1 2.5.7.6-.4.8 0 .4 1-.4 1.1-.2 1.4.9 1 .8-.3 1.3-.8 1-1.1-.3-.2 0-1.4.6-2.6 1.7-3.1 1.8-6.3.3-6.3-.8 0-1.7.7-2 1.5zM357 736c0 .5-.2 1-.4 1-.3 0-.8-.5-1.1-1-.3-.6-.1-1 .4-1 .6 0 1.1.4 1.1 1zM305.9 730.2c-.5.9-.5 4.8-.1 4.3.6-.6 1.1-4.5.5-4.5-.2 0-.4.1-.4.2zM316.7 732.1c.7.7 1.5 1 1.8.7.3-.3-.2-.9-1.2-1.2-1.4-.6-1.5-.5-.6.5zM321.2 731.9c-1.1.7-1.1.9 0 1.4.9.3 1.5-.1 1.5-.9s-.1-1.4-.1-1.4c-.1 0-.7.4-1.4.9zM325 732.5c0 .8.2 1.5.4 1.5s.6-.7 1-1.5c.3-.8.1-1.5-.4-1.5-.6 0-1 .7-1 1.5zM344.7 733.5c-.9.7-1.7 1.8-1.7 2.5s.9.2 2-1.1c1-1.3 1.9-1.9 2-1.4 0 .6-.5 1.6-1.2 2.3-.7.7-.9 1.2-.4 1.2.8 0 3.6-2.6 3.6-3.3 0-1.2-2.8-1.3-4.3-.2zM319 736.1c0 .5.5.7 1 .4.6-.3 1-.8 1-1.1 0-.2-.4-.4-1-.4-.5 0-1 .5-1 1.1zM325 735.9c0 .6.4 1.3 1 1.6.6.3.7-.1.4-.9-.7-1.8-1.4-2.1-1.4-.7zM346.8 738.7c.7.3 1.6.2 1.9-.1.4-.3-.2-.6-1.3-.5-1.1 0-1.4.3-.6.6z"/><path d="M353 739c0 .6 1.1 1.5 2.5 2.2 1.3.6 2.2 1.5 1.8 2.1-.4.6-.1.7.7.2 1-.6.9-1.1-.5-2.2-1.1-.7-2.3-1.3-2.8-1.3-.4 0-.5-.5-.2-1 .3-.6.1-1-.4-1-.6 0-1.1.5-1.1 1zM331.5 740c.3.5.8 1 1.1 1 .2 0 .4-.5.4-1 0-.6-.5-1-1.1-1-.5 0-.7.4-.4 1zM334 739.4c0 .2.8 1 1.8 1.7 1.5 1.3 1.6 1.2.3-.4s-2.1-2.1-2.1-1.3zM340 740c.8.5 2 1 2.5 1 .6 0 .3-.5-.5-1s-1.9-1-2.5-1c-.5 0-.3.5.5 1zM386.6 740.6c-.3.9-.2 1.2.5.9.6-.4 1.8 0 2.8.9 1.5 1.4 1.9 1.4 3.9 0 1.2-.8 2-2 1.6-2.5-.3-.5-1.4.1-2.4 1.3-1.1 1.3-1.9 1.7-2 1 0-.6.5-1.2 1-1.2.6 0 1-.5 1-1.1 0-.8-.4-.8-1.4 0-1 .8-1.6.9-2.1.1-.9-1.5-2.2-1.2-2.9.6zM344 742.5c-.7.9-1.1 1.7-.9 2 .3.2 1-.5 1.7-1.5 1.4-2.4 1-2.6-.8-.5zM407.5 743.4c-2.4 1.6-5.5 1.7-7.2.3-2.2-1.6-1.4.1 1 2.5 2.4 2.5 4 2.9 5.4 1.4.4-.5.3-.6-.3-.3-.7.4-1.8-.1-2.5-1.1-1.2-1.5-1.2-1.6.1-.6.8.6 2.3 1 3.3.9.9-.2 1.5.1 1.2.5-1.2 1.9 4.9 3.5 7.4 2 1.3-.8 1.1-.9-.9-.7-1.6.1-2.4-.3-2.2-1.1.1-.6-.1-1.1-.5-1.1-2.5.4-3.4-.3-2.8-2.1.8-2.4.6-2.4-2-.6zM331.5 743.9c-.3.5-.2 1.2.3 1.5.5.3.9-.1.9-.9 0-1.7-.3-1.9-1.2-.6zM359.9 743.2c-.8 2.7-.5 3.6.9 3 1-.4 1.2-.7.4-1-.7-.2-1-.8-.6-1.3.3-.5.3-.9 0-.9s-.6.1-.7.2zM365 744c0 .5.5 1 1 1 .6 0 1-.5 1-1 0-.6-.4-1-1-1-.5 0-1 .4-1 1zM372.1 743.4c.2.2 1.4.9 2.6 1.5 1.8.9 2.2.9 1.8-.2-.3-.7-1.5-1.3-2.6-1.4-1.2-.1-2-.1-1.8.1zM355 744.4c0 .2.8 1 1.8 1.7 1.5 1.3 1.6 1.2.3-.4s-2.1-2.1-2.1-1.3zM367.5 746.1c-.4.6-.4 1.3-.1 1.6.3.4.6.1.6-.6s.5-.9 1.2-.5.8.3.4-.4c-.9-1.5-1.3-1.5-2.1-.1zM370 748c-.9.6-1 1-.3 1 .6 0 1.5-.5 1.8-1 .8-1.2.4-1.2-1.5 0zM392.6 750.3c.3 1 .9 1.5 1.2 1.2.3-.3 0-1.1-.7-1.8-1-.9-1.1-.8-.5.6zM379.4 751.1c-.3.6-.1 1.6.6 2.2 1 .9 1.1.9.5-.2-.4-.8-.2-1.7.6-2.2.9-.6 1-.9.2-.9-.6 0-1.5.5-1.9 1.1zM383 750.4c0 .2.7.9 1.5 1.6 1.3 1.1 1.4 1 .9-.4-.5-1.4-2.4-2.3-2.4-1.2zM370.6 751.8c-.3.5.1.9.9.9s1.5-.4 1.5-.9c0-.4-.4-.8-.9-.8-.6 0-1.2.4-1.5.8zM390.5 752c-.3.5-.1 1 .4 1 .6 0 1.1-.5 1.1-1 0-.6-.2-1-.4-1-.3 0-.8.4-1.1 1zM382.7 754.1c.7.7 1.5 1 1.8.7.3-.3-.2-.9-1.2-1.2-1.4-.6-1.5-.5-.6.5zM400.1 755.7c.7 1.2 1.5 2 1.8 1.7.3-.2-.3-1.2-1.3-2.2-1.7-1.6-1.8-1.6-.5.5zM377.6 756.2c.3.5 1 .6 1.5.3 1.3-.9 1.1-1.2-.6-1.2-.8 0-1.2.4-.9.9zM387 755.9c0 .6.4 1.2.8 1.5.5.3.9-.1.9-.9s-.4-1.5-.9-1.5c-.4 0-.8.4-.8.9zM395.1 755.3c.2.1 1.2.9 2.2 1.6 1.5 1.2 1.7 1.2 1.1-.3-.3-.9-1.3-1.6-2.2-1.6-.8 0-1.3.1-1.1.3zM403.6 755.8c-.3.4.4.9 1.5.9 2.3.2 2.5-.3.4-1-.8-.4-1.6-.3-1.9.1zM396.6 760.2c.3.5 1 .6 1.5.3 1.3-.9 1.1-1.2-.6-1.2-.8 0-1.2.4-.9.9zM415 760c0 .5.5 1 1.1 1 .5 0 .7-.5.4-1-.3-.6-.8-1-1.1-1-.2 0-.4.4-.4 1zM393.5 760.9c-.3.5-.2 1.2.3 1.5.5.3.9-.1.9-.9 0-1.7-.3-1.9-1.2-.6zM408 762c-.9.6-1 1-.3 1 .6 0 1.5-.5 1.8-1 .8-1.2.4-1.2-1.5 0zM411.3 762.7c0 .9.4 1 1.4.2.7-.6 1.3-1.2 1.3-1.4 0-.1-.6-.2-1.3-.2-.8 0-1.4.6-1.4 1.4zM419 762c-1.3.8-1.2 1 .3 1 .9 0 1.7-.5 1.7-1 0-1.2-.1-1.2-2 0zM431 763.5c0 .5.5 1.7 1 2.5s1 1 1 .5c0-.6-.5-1.7-1-2.5s-1-1.1-1-.5zM413.5 766c.3.5.8 1 1.1 1 .2 0 .4-.5.4-1 0-.6-.5-1-1.1-1-.5 0-.7.4-.4 1zM609.4 701.8c.4.3 1.4.7 2.2.8.9.1 1.3 0 1-.4-.4-.3-1.4-.7-2.2-.8-.9-.1-1.3 0-1 .4zM598 706c-4.4 3.7-4.4 3.8-2.7 6.4 1 1.4 1.3 2.6.7 2.6-.5 0-1-.6-1-1.3 0-.6-.5-.4-1.1.5-1.1 2-2.9 2.4-2.9.7 0-.5.5-.7 1-.4.6.3 1 .2 1-.4 0-.5-.3-1.1-.7-1.4-.5-.2-.2-.2.5-.1 1.3.4 1.6-.8.6-1.9-1.1-1-4.4 1.2-3.8 2.6.6 1.6-3.4 6.9-4.6 6.2-.5-.3-1.1-.1-1.5.5-.3.5.1 1 1 1s1.4.4 1 .9c-1 1.7 1.3 2.2 2.9.6.8-.9 1.9-1.7 2.3-1.8.4-.1.7-.6.5-1.1-.2-.5.4-.6 1.3-.2.9.3 3-.8 5.4-2.9 2.1-1.9 4.1-3.1 4.5-2.8.4.4.4 0 .1-.9-.3-.8.1-2.3 1-3.2.9-.9 1.8-2.2 1.9-2.9.1-.6.5-1.7.9-2.4s.1-1-1-.9c-1 .2-2 0-2.3-.5-.3-.4-2.5 1-5 3.1zm6.5.2c.5-.4.5-.1.1.6s-1.2 1-1.7.7c-.5-.4-.9-.3-1 .2-.4 4.9-5 10.6-7.7 9.6-.9-.4-1.3-.2-.9.4.4.6-.1 1-1.1.9-1 0-1.6.5-1.4 1.4.2.8 0 1.2-.4.7-.4-.4-1.5 0-2.5.9-1.5 1.4-1.7 1.4-1.5 0 .3-2.1 3.7-5.7 4.8-5 .5.3 1.5 0 2.3-.6 1.2-1 1.5-1 1.5 0s.3 1 1.5 0 1.3-1.6.4-2.6c-.6-.8-.8-1.4-.3-1.4s.4-.4-.3-.8c-.8-.5-.7-1.2.4-2.7 1.5-2 1.5-1.9.8.3-.6 2.2-.5 2.2 1.4 1 2.3-1.4 2.8-2.8 1-2.8-.8 0-.7-.5.2-1.6 1.2-1.4 1.4-1.4 2.4 0 .7.9 1.6 1.2 2 .8z"/><path d="M598.1 711.4c-.8.9-.8 1.6-.2 2 .5.4 1.2.2 1.6-.4.3-.5.3-1-.2-1-.4 0-.1-.5.7-1 .8-.5 1-1 .4-1s-1.7.6-2.3 1.4zM588.4 719.2l-1.9 2.3 2.3-1.9c1.2-1.1 2.2-2.1 2.2-2.3 0-.8-.8-.2-2.6 1.9zM571.5 721c-.3.5-.4 1.4 0 1.9.3.5.1 1.2-.5 1.6-.6.4-.8 1.1-.5 1.6.8 1.1-.6 1.2-2.4 0-.7-.5-1.1-1.3-.7-1.9.3-.6.2-1.3-.3-1.6-.5-.3-1.1.4-1.4 1.5-.4 1.4-1.1 2-2.1 1.6-.8-.3-1.7.1-2 .9-.3.9-1 1.2-1.6.9-.5-.3-1-.1-1 .4 0 2.1 4.9 1.6 6.6-.7 1-1.4 1.1-1.2.9 1.1-.2 1.5.1 2.9.6 3.3.5.3.7 1.1.3 1.7-.3.7.2.3 1-.7.9-1.1 1.6-2.3 1.6-2.6 0-.3.9-.6 2-.7 1.2-.1 1.8.3 1.4.8-.3.6.3.5 1.4-.2 1.9-1.2 1.9-1.4.4-2.5-1.4-1-1.3-1.3.9-2.5 1.3-.7 2.8-1.2 3.2-1.1.5.1.4-.5-.1-1.5-1.1-1.9-4.5-2.8-3.9-1 .3.7 1 1.1 1.6.9.7-.1 1 .2.6.8-.3.6-1 .8-1.5.5-.4-.3-1-.2-1.3.2-.2.5-.2.2 0-.6.2-.9-.2-1.1-1.3-.7-1.4.5-1.5.4-.4-.9.8-.9.8-1.5.2-1.5-.6 0-1.4.4-1.7 1zm1.3 4.3c-.1.2.4 1.2 1.2 2.3 1.4 1.7 1.4 1.8-.2.6-1.3-1-1.7-1-2.1 0-.5 1-.3-1 .2-4.1.1-.2.4-.2.7.1.3.4.4.8.2 1.1zm-3.5 2.3c.7.7-.2 3.4-1.2 3.4-.4 0-.7-.9-.8-2-.2-1.9.8-2.6 2-1.4zM538.9 736.7c-.1.5-.1 1.2 0 1.7s-.5.6-1.4.2c-.9-.3-1.4-.2-1 .3.3.5-.1 1.2-.7 1.5-.7.2-.3.4.9.2 1.1-.1 2.8-.7 3.5-1.4.8-.6 1.9-.8 2.4-.4.4.4.2-.1-.5-1.1-1.4-1.8-3-2.3-3.2-1zM552.5 739c-.3.6.1.7.9.4 1.8-.7 2.1-1.4.7-1.4-.6 0-1.3.4-1.6 1zM525.4 743.6c-1.8 1.4-1.8 1.5.4.4 1.2-.6 2.2-1.3 2.2-1.5 0-.8-.5-.6-2.6 1.1zM521 744c0 .5.5 1 1 1 .6 0 1-.5 1-1 0-.6-.4-1-1-1-.5 0-1 .4-1 1zM509.9 747.8c-.1.4-.1 1 0 1.4 0 .4-1 .3-2.4-.2-2-.8-2.7-.6-3.5 1-.6 1.1-.7 2-.3 2 1.3 0-1.6 2.4-3.3 2.6-.9.2-1.4-.3-1.1-1.1.7-1.7-1.2-3.5-3.7-3.5-1.8 0-1.7.3 1 3.2 1.6 1.7 2.4 2.8 1.7 2.4-.6-.3-1.5-.1-1.9.5-.4.8-.9.7-1.5-.2-.7-1.2-.9-1.2-.9 0 0 1.1-.3 1.1-1.5.1-1.9-1.6-3.2-.5-1.6 1.3 1.5 1.8 5.6 1.5 8.1-.6 1.4-1.1 2-1.3 2-.4 0 .8.4.7 1-.3.7-1.1 1-1.1 1-.2 0 .7.5 1 1.1.6.8-.5.8-.8 0-1.4-.9-.5-.8-1 .3-2 .9-.7 1.4-1.6 1.1-2-.2-.4.9-.6 2.4-.4 1.8.2 3.8-.4 5.1-1.4l2.2-1.8-2.6-.2c-1.4-.1-2.7.2-2.7.6zM420.5 748.7c.3.7.1 1.3-.6 1.3s-.9.3-.6.7c.4.3.2 1.2-.4 1.9-1.4 1.7.7 2.9 2.6 1.4.9-.8 1.5-.8 2 0s1.1.8 2.1-.1c1.1-.9 2.2-.5 5.1 1.7 2.1 1.6 4.7 3.1 5.8 3.4 1.1.3 2.1 1.1 2.1 1.8.1.7.2 1.7.3 2.3.1.8.5.8 1.5 0 1.4-1.2 4.6-.5 4.6 1 0 1.4-1.8 1.1-2.3-.4-.2-.6-.8-.8-1.3-.4-1 .9 1.6 2.8 3.1 2.3.6-.2.9-1.2.8-2.4-.2-1.3.3-1.9 1.2-1.8 1.9.3 3.2 1.6 1.5 1.6-.7 0-1 .3-.7.7.4.3.3 1.1-.1 1.8-.4.6 0 .3 1-.7 1.7-1.8 3-2.4 2.6-1.1-.2.5.2.8.7.8.6 0 .9-.4.7-.8-.1-.5.3-.7 1-.4.7.2 1.2 1 1 1.7-.2 1 .1 1 1 .3.7-.5 2.5-.9 4-.8 1.5.1 2.5-.1 2.3-.5-.3-.4 1.7-.6 4.3-.5 5.2.3 6.5-.1 5.6-1.6-.3-.6-1-.6-1.7-.1-1.4 1.1-4.7 1.2-4.7.2 0-.4-1.2-1.2-2.7-1.9-2-.9-2.8-1-3.1-.1-.3.8-.8.8-1.8-.1-1.1-.9-1.7-.9-2.8 0-1.1.9-1.5.9-1.8 0-.6-1.8-5.5-2-6.9-.3-1.7 2.1-3.2-.4-1.6-2.6 1-1.3 1-1.3-.4-.3-1.3 1.1-1.9 1-3.3-.6-1-1.1-1.5-2.5-1.1-3 .3-.6.2-1.1-.3-1.1-.6 0-1.3.7-1.6 1.6-.6 1.5-.8 1.5-2.5 0-2.3-2.1-7.1-2.8-8.8-1.4-.9.7-1.3.6-1.3-.3 0-1.1-.2-1.1-1 .1-.5.8-1 1-1 .4 0-.5-.7-1.9-1.6-3-.8-1-1.3-1.3-.9-.7zm1 4.2c-.3.6-1.1 1.1-1.6 1.1s-.4-.6.3-1.4c1.4-1.6 2.4-1.3 1.3.3zm13.5 2.8c0 1.6 1.6 1.7 2.5.2.4-.6 1.9.3 3.6 2.2 1.6 1.8 2.9 3.3 2.9 3.3 0 .1-1.1.2-2.5.2-1.4.1-2.3-.2-2-.6.3-.5.1-1.1-.4-1.5-.6-.3-.7-1.3-.4-2.3.6-1.5.5-1.5-1-.3-1.4 1.1-2 1.1-4-.2-2.9-1.9-3.4-5.2-.5-3.4 1 .7 1.8 1.7 1.8 2.4zm14 4.4c0 .8.6.7 1.7-.2 1.1-1 1.4-1 .9-.2-.4.8-.2 1.3.4 1.3.6 0 .8.5.4 1.1-.4.8-.9.7-1.5-.2-.5-.8-.9-1-.9-.5s-.6.3-1.3-.3c-.8-.6-1.8-.7-2.2-.3-.5.4-.5.1-.1-.6.9-1.5 2.6-1.6 2.6-.1zm10.8.7c.8-.8 1-.6.8.7-.3 1.8-3.6 3.1-3.6 1.4 0-.5-.5-.9-1.1-.9-.5 0-.7.5-.3 1.2.4.7.3.8-.4.4-1.9-1.2-.2-3.7 1.7-2.6 1.2.6 2.2.5 2.9-.2z"/><path d="M490.9 753.4c.6.8 2.3 1.3 3.7 1.3 3.3 0 1.5-1.9-2.1-2.3-2.1-.2-2.4 0-1.6 1zM484.6 758.9c-.4.5-1.4.8-2.4.6-.9-.1-2.3.2-2.9.8-.9.6-1.7.6-2.6-.2-1.6-1.3-2.8-.5-2 1.4.3 1 1.1 1.1 2.9.5 1.3-.5 2.4-.6 2.4-.3 0 .4.5.2 1.1-.4.6-.6 1.8-.9 2.5-.6.8.3 1.4 0 1.4-.6s.5-1.1 1.1-1.1c.5 0 .7.4.4 1-.3.6.1.7 1 .3 1.3-.5 1.4-.7.3-1.4-1.7-1.1-2.6-1.1-3.2 0zM530.7 747.1c.7.7 1.5 1 1.8.7.3-.3-.2-.9-1.2-1.2-1.4-.6-1.5-.5-.6.5z"/></svg>